<?xml version="1.0" encoding="UTF-8"?>
<svg id="_레이어_2" data-name="레이어 2" xmlns="http://www.w3.org/2000/svg" viewBox="0 0 807.3 1040.18">
  <defs>
    <style>
      .cls-1 {
        fill: #fff;
      }

      .cls-2 {
        fill: #812d41;
      }
    </style>
  </defs>
  <g id="_레이어_4" data-name="레이어 4">
    <g id="Grupo_95" data-name="Grupo 95">
      <g id="Forma_1" data-name="Forma 1">
        <path class="cls-2" d="M46.84,387.81c4.86.48,12.11-3.43,16.35-4.4,4.82-1.1,10.69,2.78,16.98,1.26,16.99-4.12,30.58-10.21,37.09-24.53,6.95-15.26,5.7-38.57-.63-53.45-1.21-2.84-4.18-7.1-6.29-9.43-1.05-.63-2.1-1.26-3.14-1.89-1.05-4.82-2.1-9.64-3.14-14.46-5.58-12.96-20.28-19.66-37.72-20.75-4.18,2.74-10.91,1.68-15.72,3.77-1.66.72-2.98,2.91-4.4,3.77-1.89.42-3.77.84-5.66,1.26-3.41,1.72-12.85,8.96-15.09,11.95-2.41,3.21-6.15,7.68-7.54,11.32-.84,4.19-1.68,8.39-2.52,12.58-2.06,5.07-7.83,9.75-10.69,14.46-2.28,3.75-3.38,11.45-4.4,15.72-1.47,6.16,2.63,15.27,4.4,19.49,6.87,16.4,21.09,31.27,42.12,33.33ZM716.43,236.25c3.67-.82,9.07-1.61,13.2-3.14,1.48-.55,3.53-2.7,5.03-3.14,3.95-1.16,8.96,1.81,11.95,2.51,8.8,2.07,28.99-3.36,33.95-6.29,24.96-14.75,34.22-52.39,20.12-85.52-2.68-6.3-8.17-9.9-12.57-14.46-1.99-2.88-1.39-7.54-2.51-11.32-2.6-8.71-5.46-17.88-11.95-22.64-11.69-8.57-32.61-12.57-49.04-6.29-3.28,1.25-5.65,5.08-8.8,6.29h-3.14c-5.37,1.97-17.49,11.35-20.75,15.72-2.76,3.71-6.41,8.32-8.17,12.58-1.67,4.05-.86,9.25-3.14,12.58v6.29c-.71,1.35-4.03,2.43-5.03,3.77-3.43,4.61-7.15,9.7-10.06,14.46-6.58,10.78-5.2,27.7-.63,38.99-5.33-3.46-9.92-8.32-15.09-11.95-11.5-8.06-24.51-14.47-38.35-20.12-13.6-5.55-29.7-7.09-44.64-10.69-5.78-1.39-10.81.09-16.98-1.26-11.99-2.63-29.48-.51-39.61,1.89-4.69,1.11-10.38.15-13.83,2.51h-1.89c11.8-30.98-8.18-56.56-27.04-69.17-3.47-2.32-20.66-13.25-27.66-8.8-5.57-.51-12.96-11.01-19.49-13.21-19.16-6.44-33.37,1.26-45.9,10.06-2.69,1.89-5.62,3.08-7.54,5.66-3.29,4.43-5.5,9.46-9.43,13.21v.63c-2.31-3.25-2.13-8.05-3.77-11.95-2.22-5.28-5.09-11.46-8.17-16.35-14.69-23.3-36.56-43.87-62.87-55.34-10.72-4.67-23.82-6.95-35.84-10.06-14.19-3.67-33.67-.69-45.27,2.51-9.08,2.51-17.62,2.93-25.78,6.29-24.07,9.91-49.51,27.16-64.13,46.54-7.47,9.9-16.03,18.54-20.75,31.44-12.42,33.98,2.75,66.7,10.69,94.96,3.09,10.99,2.74,21.44,5.66,32.7,3.16,12.19,3.06,25.83,6.29,38.99,3.05,12.46,2.45,26.32,5.66,39.62,2.26,9.39,1.96,19.6,4.4,29.56,6.15,25.07,8.59,51.56,16.98,74.2-6.08,1.68-12.16,3.35-18.23,5.03-8.17,3.43-18.9,10.76-23.89,17.61-8.86,12.15-12.38,26.34-16.35,44.02-1.66,7.38-.15,16.26,0,23.27.26,12.41-.68,28-3.14,38.99-.21,3.77-.42,7.55-.63,11.32-2.67,11.87-2.1,24.78-5.03,37.1-8.9,37.37-10.57,76.75-19.49,113.82-3.6,14.94-2.93,30.64-6.29,45.28-.63,7.76-1.26,15.51-1.89,23.27-4.92,22.35-3.88,60.88,1.89,80.49,2.12,7.22,1.77,16.56,6.29,21.38v1.26c-2.51.42-5.03.84-7.54,1.26-3.32,1.37-7.1,4.13-10.06,6.29-12.77,9.3-19.7,29.55-23.89,47.79-2.24,9.75,6.6,25.9,10.69,30.18,2.51,1.89,5.03,3.77,7.54,5.66.84,3.98,1.68,7.97,2.52,11.95,2.68,7.53,9.93,20.21,15.72,24.53,3.99,2.98,9.13,7.03,13.83,8.8,23.54,8.86,46.54-.74,61.62-11.32,5.14-3.61,10.77-6.99,14.46-11.95,1.54-2.07,3.98-4.84,5.03-6.92,1.5-2.95.76-6.91,2.52-9.43v-1.89c1.42-1.91,6.16-2.98,8.17-4.4,3.79-2.67,6.69-6.38,10.06-9.43v-.63h.63c-1.83,8.25-4.08,17.17-6.29,25.15-.42,3.56-.84,7.13-1.26,10.69-1,4.16-2.59,12.45-1.26,18.24,1.68,6.5,3.35,13,5.03,19.49,6.95,15.76,28.76,31.22,50.93,22.01,10.43-4.33,19.49-15.77,25.78-24.53,2.15-2.99,3.44-6.54,6.29-8.8,2.77-1.84,12.01,4.16,16.98.63,3.18,3.01,7.79,7.74,11.95,9.43,18.24,7.43,38.68-2.15,42.12-18.86,1.3.12,22.3-1.84,23.26-2.52,5.35.68,6.69,4.68,10.69,6.29,10.99,4.42,26.93,3.15,33.95-4.4,3.12,1.65,4.25,6,6.29,8.8,2.37,3.26,11.49,10.65,15.09,12.58,16.59,8.9,37.3-2.46,42.75-14.46,2.92-6.42,2.44-15.12,6.29-20.75,1.44-2.82,10.76-1.67,15.09-3.77,1.58-.77,3.38-3.91,5.03-4.4,3.77.84,7.54,1.68,11.32,2.52,3.03-.67,7.71-3.61,11.95-2.52,4.03,1.04,10.35,4.59,15.72,3.14,11.96-3.21,23.55-6.7,29.55-15.72,4.22.58,9.12,3.56,13.83,2.52,2.66-.59,6.6-3.19,10.06-2.52,5.88,1.14,13.58,4.23,19.49,0,5.05.9,9.99,8.55,15.09,10.69,16.65,7,39.45-1.7,41.5-18.24,4.91.67,10.87-2.11,15.72-3.14,3.26-.7,5.92,1.53,8.17,1.89,3.9.63,20.63-4.44,22.63-6.29,5.52,1.22,8.57,7.25,13.2,9.43,7.04,3.32,21.28,3.43,28.29,0,12.98-6.36,15.65-20.66,21.38-34.59,9.66-23.52,18.12-48.71,27.66-72.32,3.76-9.31,4.71-21.36.63-30.81-4.8-11.11-15.1-17.7-28.29-20.75-3.56.42-7.13.84-10.69,1.26-1.3-.41-2.65-2.58-3.77-3.14-4.82-1.05-9.64-2.1-14.46-3.14-2.96.5-9.52,1.6-12.57,3.14-2.87,1.45-5.41,5.53-8.17,6.92-2.72.42-5.45.84-8.17,1.26-7.96,2.24-17.13,5.34-21.38,11.32-12.18-.7-13.48-7.69-21.38-10.69-11.24-4.26-22.83-1.4-30.81,3.77-6.63-8.74-19.99-10.6-32.07-8.8.42-2.51.84-5.03,1.26-7.55,8.52,3.58,19.08,5.93,28.92,8.18,8.09,1.85,16.3-5.36,22.01-3.77,1.12.31,3.12,2.09,4.4,2.52,5.08,1.69,11.05,2.67,15.72,3.77,3.73.88,7.03-1.18,9.43-1.89,2.72-.42,5.45-.84,8.17-1.26,8.41-3.17,16.09-12.98,20.75-20.12,8.96-13.75,7.7-54.75-1.26-68.55-3.13-4.82-7.86-9.92-12.57-13.21-1.82-1.27-5.26-1.82-6.29-3.77-1.86-3.55-1.55-9.51-3.14-13.21-5.11-11.84-14.84-23.46-28.92-26.41,1.86-5.12,7.09-8.99,10.06-13.21,7.63-10.84,15.07-22.02,22.01-33.33,21.2-34.59,37.97-88.08,23.89-138.98-3.49-12.64-5.88-22.95-11.95-32.7-9.9-15.93-23.14-29.59-38.35-40.25-4.88-3.42-10.49-6.71-15.72-9.43-2.74-1.43-5.85-1.95-8.17-3.77-1.09-.41-.62-.12-1.26-.63,9.48-2.54,17.79-10.56,25.15-15.72,24.2-16.98,39.76-35.67,49.04-67.92,5.47-18.99.88-56.58-10.06-67.29v-.63c4.49,2.27,17.85,9.18,25.15,7.55ZM233.57,150.73c.42.21.84.42,1.26.63-.03,6.16-1.24,9.95-1.89,14.46-2.09-3.17-.4-12.33.63-15.09ZM214.71,551.31c4.82,3.76,4.87,16.71,1.26,22.01-1.68,1.26-3.35,2.52-5.03,3.77h-.63c.73-9,2.73-17.9,4.4-25.78ZM239.23,834.29c-5.93,1.78-11.02,5.5-15.72,8.8-17.37,12.22-28.33,33.62-39.61,52.19-3.84,6.33-9.48,14.99-10.69,23.27h-.63c-3.37-16.72-8.48-35.89-23.89-40.25,1.32-3.56,4.88-5.35,6.92-8.17,4.53-6.3,9.39-13.47,12.57-20.75,7.67-17.52,11.04-38.56,16.35-58.48,3.16-11.85,3.31-24.7,6.29-35.84,1.1-4.14.47-11.16,3.14-13.83,2.79-2.8,9.47-1.94,13.83-3.14,9.47-2.61,29.67-5.6,35.84-11.32h1.26c-2.07,6.28-.32,13.45-1.89,20.75-4.15,19.28-.18,48.67,4.4,64.14,1.88,6.35,1.43,14.21,5.03,18.87-2.13,3.27-8.98,2.5-13.2,3.77ZM375.04,688.4c-1.83,8.09-4.71,22.63-9.43,27.67v1.26h-.63c1.26-7.75,2.52-15.51,3.77-23.27,1.84-5.73,5.01-11.61,6.29-17.61,1.45,2.36.72,8.79,0,11.95ZM469.97,796.56c-3.77.82-9.63,1.71-12.57,3.77-1.95.04-3.97.09-5.03-.63h-.63c2.62-7.78,8.68-13.52,10.69-22.01,3.53,2.04,4.48,14.6,7.54,18.24v.63ZM554.85,280.9c-2.33.61-5.2,1.75-6.92,3.14h-.63c.73-1.44,1.38-2.08,1.89-3.77h5.66v.63ZM558.62,555.08c-2.43-3.3-2.59-21.92,0-25.15,1.81-2.56,5.27-2.97,7.54-5.03h1.89v.63h.63c-.03,15.72-4.26,20.59-10.06,29.56Z"/>
      </g>
      <g id="roversy">
        <path class="cls-1" d="M251.59,908.33c4.45-4.46,8.11-10.41,10.81-17.13,3.34-7.95,3.18-12.47-.64-19.44-.95-1.91-2.07-3.81-3.18-5.47-2.38-3.76-5.25-4.74-9.22-3.07-5.4,2.55-10.17,6.83-14.62,11.75-9.7,10.17-17.8,22.39-24.96,36.08-11.28,21.97-19.71,46.04-23.21,72.63-1.59,12.25.48,21.28,7.47,27.15,2.7,2.36,5.4,3.13,8.27.7,2.86-2.2,5.88-4.43,8.27-7.7,9.54-12.65,18.76-25.7,28.13-38.55.48-.75.64-1.68,1.27-2.9-1.43-1.85-2.7-3.72-4.29-6.23-2.07,2.32-3.81,3.92-5.25,5.71-6.68,7.94-13.35,16.11-20.19,24.08-3.5,4.33-6.99,8.21-10.65,12.11-.8.79-2.07,1.19-3.66,1.86.64-3.95.8-7.15,1.43-10.19,6.68-35.42,19.39-65.98,38.31-91.48,4.29-5.58,9.22-10.1,13.99-15.07.79-.79,1.91-.94,4.13-1.92-4.29,9.44-7.79,17.63-11.13,25.58,3.5,5.66,4.77,5.94,8.9,1.52ZM288.69,908.98c0-11.07-3.77-17.52-9.12-22.33-1.98-1.72-4.16-1.14-5.95,1.23-1.59,2.06-2.97,4.66-4.46,6.99-.79,1.53-1.49,3.33-2.38,4.72-7.83,11.14-13.09,24.77-17.35,39.55-1.78,6.35-3.07,12.91-3.37,19.77-.3,5.86.2,11.47,3.27,14.89,1.59,1.77,3.47,2.94,5.25,4.12,1.59,1.21,3.37.82,5.16-.27,3.27-1.86,6.05-5.36,8.53-9.11,8.33-12.49,14.38-27.22,18.04-43.9,1.19-5.13,1.59-10.44,2.38-15.66ZM281.65,913.06c-2.58,18.66-8.92,34.15-17.65,47.68-1.59,2.49-3.47,4.73-5.45,6.84-1.29,1.45-2.78,2.22-4.26,3.27-1.09-7.24.2-17.21,3.57-27.74,1.19,1.12,2.28,2.25,3.47,3.22,1.88,1.45,3.77,1.05,3.77-2.21.2-14.65,1.39-30.15,15.27-48.92,2.18,6.24,2.08,12.07,1.29,17.86ZM315.76,953.02c-2.58-2.06-5.25-3.83-8.13-5.71.4-.62.5-.92.6-1.07.69-.52,1.59-1.07,2.28-1.59,9.42-7.1,18.14-16.09,26.07-26.67,2.88-4.08,5.55-8.56,7.54-13.94,1.19-3.43,1.78-7.06.69-10.46-2.18-6.09-4.96-10.97-10.21-12.25-4.66-.93-9.32-1.01-13.98.05-1.39.33-2.58.63-3.87.95.5-8.59,0-9.94-4.46-12.31-.5,1.2-1.19,2.57-1.69,3.92-.99,2.83-2.08,5.68-2.78,8.47-.6,2.64-1.69,4.2-3.47,5.3-5.06,2.67-9.82,6.72-13.78,12.23-2.68,3.77-2.58,5.74.2,8.63.3.24.69.47.99.58,1.88-4.23,7.44-9.67,11.3-10.9-7.04,25.94-13.48,51.94-19.33,80.28-1.09,7.81-.89,8.5,3.97,10.96.1.13.2.11.89.02.59-1.5,1.29-2.87,1.69-4.49,2.88-9.76,5.65-19.65,8.53-29.41.4-1.19.79-2.52,1.39-4.3,4.66,4.48,9.12,8.84,13.58,13.07,1.09,1.13,2.28,2.1,3.47,3.08,1.09.99,2.38.67,3.77-.08,4.26-2.85,4.66-4.61,1.39-8.71-1.88-2.3-4.36-3.95-6.64-5.63ZM304.26,934.41c.3-1.74.5-2.62.69-3.5,2.88-11.89,5.85-23.94,8.72-36.11.5-1.91.99-3.4,2.68-3.77,11.5-2.41,33.02-4.75,13.88,17.86-7.04,9.61-15.17,17.39-23.7,23.94-.6.51-1.29.74-2.28,1.59ZM392.29,867.97c.4-2.89-1.19-6.09-2.97-6.27-.5.07-1.39.9-1.69,1.51-.79,1.67-1.39,3.45-1.88,5.37-5.95,19.55-11.8,39.08-17.55,58.6-.4,1.05-.69,2.22-1.39,4.3-.5-3.06-.99-4.98-1.39-7.05-1.98-10.95-3.97-21.9-5.85-33-.3-1.24-.4-2.93-.2-4.52.5-2.2-.2-3.24-1.49-3.77-.59-.2-1.39-.52-1.98-.87-1.59-.78-2.78-.19-3.57,2.19-.5,1.2-.99,2.69-1.39,3.88-1.39,4.31-2.58,8.73-3.77,13-5.26,18.88-10.31,37.88-14.38,57.32-.59,2.21-1.39,4.73-.89,7.08,4.07,1.58,4.26,1.55,5.65-4.03.3-.61.4-1.33.59-2.07,4.86-16.99,9.72-34.11,14.57-51.24.4-1.19.89-2.54,1.59-4.76.79,5.29,1.29,9.62,1.88,13.94,1.59,9.3,3.07,18.75,4.86,27.88.69,3.6.79,6.42.2,10.05-.69,4.35-.99,8.94-1.29,13.52.1,1.26.5,2.91,1.19,3.53,1.29,1.39,2.97,2.29,4.86,1.9.6-2.78,1.09-5.26,1.79-7.91,2.18-8.96,4.46-17.93,6.64-26.88,5.35-20.89,10.51-41.6,15.86-62.35.79-3.09,1.39-6.29,1.98-9.36ZM421.94,918.99c-1.05-7.73-2.57-9.04-7.25-9.24-7.25-.36-14.39,2.28-21.52,3.42-1.87.42-3.86,1.36-6.08,2.16,1.29,7.03,4.33,8.8,8.42,8.24,7.49-1.01,14.97-2.03,22.46-3.04,1.29-.17,2.57-1.02,3.98-1.54ZM468.59,845.56c10.37-1.77,20.73-3.54,30.84-5.28,1.68-.41,3.37-1.19,4.92-2.32.65-.46,1.42-1.85,1.42-2.77.52-4.67-3.5-12.59-6.87-12.68-4.28-.34-8.68.07-12.96,1.02-8.81,2.11-17.36,4.93-26.17,7.41-2.33.5-4.92,1.77-7.13-.87-3.11,3.92-3.5,3.97-8.16,5.15-6.61,1.81-13.35,3.28-19.82,5.26-4.54,1.35-8.81,3.03-12.96,5.07-4.66,2.1-3.5,4.34-1.43,8.47,1.17,2.05,2.85,1.27,4.15,1.09,8.81-1.38,17.75-2.77,26.69-4.17.91-.31,1.81-.25,3.24-.44-9.72,43.8-26.17,89.07-32.13,123.91-1.81,10.73-1.56,9.22,5.05,15.32,3.5,3.2,4.28,2.92,5.96-2.28,3.11-9.8,6.09-19.59,8.68-29.69,6.61-26.65,12.83-53.24,19.31-79.68,2.46-10.08,4.79-19.96,7.26-30.23,3.5-.66,6.74-1.65,10.11-2.29ZM485.62,934.5c-5.24-3.27-10.48-6.41-16.1-9.77,3.3-2.64,6.31-4.97,9.12-7.41,9.6-8.17,18.53-17.75,26.1-29.63,2.13-3.58,3.98-7.54,5.53-11.6,1.45-3.63,1.75-7.79.48-11.46-2.04-5.77-4.95-9.9-9.8-11.17-5.72-1.42-11.55-.36-17.27,2.2-2.13.98-4.07,1.65-5.82-.31-.1-.12-.29-.1-.68-.05-.29.45-.78.93-.97,1.5-1.07,3.03-2.91,4.65-4.95,6.3-3.01,2.19-5.82,4.91-8.05,8.64-1.45,2.53-1.36,3.48.19,5.19.39.5.97.83,1.46,1.18,1.55-1.86,2.81-4.23,5.14-4.95-.68,2.01-1.26,3.6-1.75,5.18-6.02,19.63-11.64,40.03-16.69,67.49-.29,1.41-.1,3.45.58,4.18,1.26,1.34,2.72,2.65,4.95,2.21,1.84-6.84,3.78-13.56,5.72-20.96.97.69,1.75,1.27,2.43,1.87,5.43,4.21,10.87,8.42,16.3,12.49,3.88,2.77,5.43,2.42,8.44-2.1,1.65-2.56,1.75-3.39,0-5.49-1.26-1.48-2.81-2.64-4.37-3.53ZM467.47,911.69c4.07-14.83,8.15-29.67,12.32-44.38.29-1.14,1.07-2.34,1.75-2.71,6.4-3.34,13-5.47,19.6-4.44.39.08.78.03,1.16.25,4.27,1.07,5.14,3.56,2.81,9.23-1.55,3.78-3.59,7.21-5.72,10.39-5.34,8.14-11.55,14.75-17.95,20.83-4.75,4.49-9.41,8.83-14.46,13.63.19-1.26.29-2.1.49-2.81ZM536.94,863.69c-3.98-3.99-7.57-3.92-11.93.24-3.2,2.91-5.63,6.94-7.86,11.23-.68,1.19-1.26,2.64-2.04,3.71-7.08,9.75-11.84,21.51-15.33,34.35-1.26,4.7-2.23,9.64-2.13,14.71-.1,7.29,1.94,13.06,6.6,16.41,1.16.94,2.23,1.89,3.4,2.7,2.43,1.46,4.95,1.8,7.76.32,3.4-1.7,6.31-4.42,9.12-7.83,7.76-9.84,13.87-21.52,17.85-34.96,1.36-4.99,2.33-10.2,2.81-15.21.87-7.67-.1-14.82-3.78-20.22-1.36-2.01-2.91-3.86-4.46-5.44ZM534.7,902.31c-3.69,11.48-9.02,21.68-15.91,30.03-2.13,2.49-4.56,4.6-6.98,6.44-1.46,1.02-3.2,1.26-4.85,1.89-1.36-3.11-1.55-6.38-1.36-9.57.39-8.15,2.33-16.11,4.85-23.86,1.16.67,2.23,1.48,3.4,2.15,2.13-2.49,3.1-5.78,4.36-8.83,2.23-5.52,4.27-11.29,6.99-16.88,1.65-3.52,3.88-6.57,6.01-9.6,1.36-1.83,2.91-3.42,5.05-2.88,1.75,3.47,1.84,7.72,1.84,11.97-.1,6.6-1.36,12.95-3.4,19.14ZM593.78,890.19c4.37-1.55,8.83-3.39,13.19-5.22,1.16-.43,2.14-1.25,3.4-1.97-.68-1.69-1.16-2.59-1.55-3.5-.87-2.22-2.14-3.01-3.98-2.62-2.52.75-5.05,1.37-7.47,1.97-1.07.28-2.04.83-3.4,1.42.97-4.52,3.4-15.7,7.28-17.46,3.3-1,6.69-2.01,9.99-3.14,2.23-.85,4.46-1.84,6.79-2.84.97-.54,2.04-1.24,1.55-3.23-.78-4.29-2.43-5.99-5.63-5.55-.68.09-1.36.05-2.04.28-7.08,2.82-13.99,6.14-20.47,10.87,3.52-5.99,7.13-11.9,10.87-17.68.97-1.37,1.94-3.01,2.52-4.87,1.07-2.89.68-4.76-1.07-6.31-1.36-1.19-2.72-2.1-4.07-3.16-1.84-1.26-3.01-.97-4.46,1.43-.68,1.05-1.16,2.36-1.65,3.52-2.23,4.83-4.17,9.9-6.5,14.47-9.99,19.07-19.31,38.46-27.46,59.06-.29.59-.58,1.04-1.36,2.24.39-7.47.68-14.1.97-20.59.39-8.43.87-16.87,1.07-25.41.19-5.79-.58-6.65-4.85-7.72-.39.74-.58,1.18-.68,1.74-.29,1-.49,2.13-.58,3.24-1.36,12.95-2.91,25.94-3.88,38.84-.78,9.58-1.07,19.1-1.26,28.6-.1,6.6.19,6.57,4.66,8.02q2.72.87,4.07-3.02c8.28-23.86,18.61-45.96,30.39-66.74.58,1.01,1.17,2.01,1.72,3.07-.68,1.6-1.26,3.6-1.94,5.48-6.89,19.61-9.9,28.39-15.33,48.77-1.94,6.58-1.84,6.57,2.33,11.49,1.26,1.61,2.33,1.88,3.88.71,4.85-3.4,9.8-6.68,14.84-9.56,3.59-2,7.37-3.33,10.96-5.33,1.36-.6,2.91-.81,3.2-3.04-2.33-5.59-3.3-6.28-7.47-5.31-.87.26-1.75.37-2.62.9-4.46,2.39-8.83,4.9-13.19,7.28-.58.35-1.07.56-2.13.84,2.52-8.44,4.85-16.31,6.79-24.4.87-3.14,2.23-4.7,4.56-5.56ZM642.77,910.74c-2.52-1.99-5.14-3.7-7.96-5.51.39-.6.49-.89.58-1.04.68-.5,1.55-1.03,2.23-1.54,9.22-6.88,17.75-15.59,25.51-25.84,2.81-3.95,5.43-8.29,7.37-13.49,1.16-3.32,1.75-6.83.68-10.12-2.13-5.89-4.85-10.6-9.99-11.83-4.56-.89-9.12-.96-13.68.07-1.36.32-2.52.62-3.78.92.48-8.31,0-9.61-4.37-11.9-.49,1.16-1.16,2.49-1.65,3.79-.97,2.74-2.04,5.49-2.72,8.19-.58,2.55-1.65,4.07-3.4,5.13-4.95,2.59-9.6,6.52-13.49,11.85-2.62,3.65-2.52,5.56.19,8.35.29.23.68.46.97.55,1.84-4.09,7.28-9.36,11.06-10.56-6.89,25.1-13.19,50.26-18.92,77.68-1.07,7.56-.87,8.22,3.88,10.6.1.12.19.11.87.02.58-1.45,1.26-2.78,1.65-4.34,2.81-9.44,5.53-19.01,8.34-28.46.39-1.15.78-2.44,1.36-4.17,4.56,4.33,8.93,8.54,13.29,12.62,1.07,1.09,2.23,2.03,3.4,2.97,1.07.95,2.33.64,3.69-.09,4.17-2.76,4.56-4.46,1.36-8.42-1.84-2.22-4.27-3.82-6.5-5.44ZM631.52,892.77c.29-1.69.49-2.54.68-3.39,2.81-11.5,5.72-23.16,8.54-34.94.48-1.85.97-3.29,2.62-3.65,11.25-2.35,32.31-4.65,13.58,17.25-6.89,9.31-14.84,16.84-23.19,23.19-.58.49-1.26.72-2.23,1.54ZM683.71,868.81c-.58-.33-1.16-.94-2.04-1.65,6.21-11.83,13.97-20.02,23.28-25.4.78.72,1.46,1.45,2.04,2.06,2.91-1.63,3.2-2.49,1.94-5.76-.58-1.43-1.16-2.73-1.84-4.14-.97-1.93-2.43-2.97-4.27-2.58-1.16.16-2.33.45-3.49,1.02-6.79,3.12-12.71,8.59-18.05,15.63-2.04,2.61-3.78,5.87-5.34,9.1-1.55,3.37-1.46,6.93,0,10.3,2.23,4.78,4.75,8.97,8.63,11.33.97.56,1.94,1.52,2.91,2.35,2.43,2.14,2.81,4.01,1.65,8.02-1.16,4.28-3.3,7.45-5.82,10.13-4.95,5.34-10.48,8.42-16.4,10.05-1.65.5-3.4.46-4.95-.02-1.07-.41-1.84-.3-2.62,1.04-.78,1.34-.19,2.36.39,3.38,1.07,2.05,2.23,4.23,3.49,6.26,1.65,2.66,3.78,3.74,6.5,3.38,5.14-.56,9.9-3.54,14.55-7.05,3.78-2.85,7.08-6.59,9.6-11.46,3.2-6.06,3.98-12.21,1.65-18.62-2.81-7.45-6.4-13.69-11.84-17.35ZM753.75,828.7c-.29-.37-.58-.75-.87-.98-2.04-2.33-2.13-2.18-4.17.57-11.45,16.38-22.8,32.89-34.25,49.27-.48.62-.97,1.09-2.04,2.06.78-2.58,1.16-4.41,1.75-6,2.33-7.46,4.75-15.06,7.18-22.53,2.13-6.74,4.46-13.24,6.4-20.09,1.75-5.46,1.26-6.76-2.52-9.68-.48.75-.87,1.08-1.16,1.67-.58,1.04-1.16,2.08-1.55,3.23-5.05,13.18-10.09,26.36-14.75,39.49-1.65,4.48-2.72,9.16-3.59,13.81-1.26,6.49-.68,8.33,3.2,11.51.39.5.97.83,1.36,1.33,1.46,1.31,2.91,1.12,4.37-.45,1.75-1.88,3.4-3.76,5.05-5.76,4.85-6.84,9.51-13.78,14.36-20.48.68-1.05,1.45-1.84,2.13-2.76-6.89,19.2-13.29,38.33-20.86,56.93-1.45-1.18-2.72-2.1-4.07-3.16-1.26,3.33-.29,5.53.97,7.01,1.55,1.99,3.3,3.67,5.14,5.35,2.04,1.51,3.3.93,4.66-1.87.87-1.9,1.65-3.79,2.33-5.67,10.57-28.48,21.15-56.83,31.72-85.32,1.55-4.06,1.45-4.59-.78-7.45Z"/>
      </g>
      <g id="p_copia" data-name="p copia">
        <path class="cls-1" d="M680.41,493.11c-3.99-37-22.33-64.15-55.28-81.19-33.38-17.26-69.39-18.5-107.79-3.51-20.05,7.82-37.95,19.36-53.71,34.53,2.74-5.2,5.36-10.97,7.85-17.43,6.91-17.92,12.76-28.65,17.63-32.34,4.85-3.68,16.94-6.49,36.24-8.45,26.17-3.02,52.61-10.83,79.17-23.35,26.29-12.4,45-25.93,56.21-40.57,5.76-7.37,10.02-15.29,12.78-23.76,8.51-26.08,1.09-50.48-21.83-73.28-22.52-22.41-51.9-35.79-88.33-40.43-19.38-2.47-38.34-1.94-56.95,1.59-17.87,3.15-31.32,7.07-40.32,11.76-9.05,4.71-15.32,11.13-18.79,19.27-2.37,5.54-3.72,12.13-4.07,19.8-.9,18-10.36,53.01-30.24,109.36-16,44.62-24.91,78.09-25.38,97.66-.48,19.57,7.17,30.58,22.98,32.82,10.13,1.44,19.16.15,27.09-3.79-2.79,3.95-5.15,7.75-6.96,11.37-5.7,11.39-7.57,23.29-5.63,35.67,1.31,8.35,4.24,17.36,8.78,27.04,5.04,10.86,10.55,27.43,16.47,49.23-5.85-12.85-13.79-22.97-23.92-30.25-16.28-11.92-29.3-17.54-38.98-16.78-8.46.66-20.64,5.96-36.54,15.91-11.33,7.17-21.94,18.28-31.85,33.14,3.28-11.15,6.32-22.77,6.69-28.63,2.2-34.66-12.84-48.54-33.6-79.24-9.51-14.06-18.41-26.21-28.13-36.31,7.14,6.36,13.52,10.07,19.11,11.02,7.18,1.22,18.29,9.16,33.32,4.49,16.07-5.08,38.63-15.06,55.64-34.82,17.06-19.83,25.34-52.97,36.93-80.21,17.6-41.34,24.49-77.12,20.52-102.34-4.01-25.46-18.74-40.92-44.3-46.21-13.61-2.82-23.97-3.07-31.03-.77-7.08,2.31-18.66,9.83-34.71,22.55-30.7,23.74-53.92,55.15-69.61,93.98-9.87,24.41-14.59,47.63-14.21,69.67.37,21.87,6.26,39.1,17.6,51.75,1.29,1.47,2.56,2.84,3.81,4.16-9.81-8.79-20.7-15.63-33.96-20.36-16.46-5.87-43.37-3.07-59.06-1.16-15.4,1.55-27.05,4.79-34.76,9.77-7.85,5.07-13.05,12.92-15.56,23.62-1.72,7.35-2.4,16.35-2.04,27.04.78,25.11-4.85,73.7-20.05,160.59-12.5,69.91-19.75,128.56-18.64,163.58,1.1,35.08,10.56,54.51,28.15,57.33,15.13,2.42,27.36-3.95,36.64-18.8,9.04-14.49,16.14-38.47,21.28-71.19,4.65-29.58,9.05-46.93,13.3-52.81,4.2-5.82,15.33-10.18,33.11-13.08,23.44-4.38,45.69-15.82,66.55-33.75,6.68-5.74,12.5-11.65,17.63-17.68-5.93,17.94-10.4,36.88-13.32,56.84-7.44,50.9-5.06,88.59,6.96,113.3,11.89,24.42,32.36,34.57,61.28,30.7,15.19-2.03,26.19-5.42,33.03-10.14,6.84-4.73,17.08-16.12,30.71-34.17,26.22-33.97,43.05-73.39,50.55-118.62,3.4-20.48,4.18-39.69,2.44-57.68,3.32,14.54,6.75,30.44,10.27,47.69,11.01,55.14,21.27,91.51,30.91,109.92,9.55,18.25,21.28,24.48,35.26,18.8,12.17-4.94,20.32-13.44,24.46-25.51,4.15-12.11,4.72-29.27,1.68-51.6-2.89-21.19-3.17-34.97-.83-41.21,2.34-6.24,11.34-15.35,26.99-27.31,21.11-16.64,40.34-38.61,57.76-66.02,17.52-27.57,28.08-52.85,31.63-75.87,1.91-11.81,2.25-23.58.98-35.33ZM516.47,285.52c4.22-10.86,9.15-19.3,14.79-25.38,6.2-6.74,16.45-9.17,30.77-7.3,11.53,1.51,19.62,5.29,24.28,11.38,5.12,6.7,6.29,13.97,3.47,21.8-4.78,13.26-17.5,22.63-38.2,28.01-13.75,3.62-24.94,4.85-33.55,3.7-1.91-.26-3.41-.73-4.48-1.42-4.53-3.88-3.53-14.19,2.92-30.79ZM300.18,337.81c8.57-20.3,22.33-38.5,41.31-54.66,9.33-7.95,15.21-11.76,17.64-11.41,2.43.35,5.17,5.12,8.25,14.32,3.49,9.32.19,26.21-9.99,50.75-8.31,20.05-17.17,34.8-26.54,44.17-6.94,6.66-13.37,9.48-19.28,8.46-2.65-.46-5.25-1.53-7.8-3.22-6.19-3.87-9.52-10.12-9.98-18.74-.47-8.58,1.67-18.48,6.4-29.68ZM248.11,569.45c-2.08,18.02-11.55,30.34-28.73,36.74-11.65,4.4-21.5,5.54-29.43,3.35-1.77-.49-3.19-1.27-4.25-2.35-4.61-5.96-4.96-20.9-1.15-44.23,2.45-14.99,5.78-26.35,9.99-34.24,4.57-8.66,13.11-10.93,25.59-6.96,9.93,3.16,17.23,9.03,21.97,17.67,5.22,9.52,7.24,19.5,6.03,30.02ZM404.6,692.15c-3.98,24.87-14.59,48.99-31.86,72.47-8.48,11.55-14.19,17.5-17.11,17.86-2.92.35-7.51-4.04-13.78-13.21-6.79-9.17-7.92-28.69-3.34-58.69,3.75-24.5,9.69-43.37,17.81-56.49,6.09-9.41,12.72-14.45,19.88-15.13,3.21-.3,6.54.08,10,1.17,8.32,2.37,14.02,8.21,17.09,17.53,3.07,9.27,3.5,20.77,1.3,34.49ZM578.24,579.15c-10.5,11.52-19.89,18.93-28.22,22.24-1.85.74-3.44,1.01-4.77.8-6.13-1.97-10.76-14.3-13.92-37.16-2.1-15.23-2.23-28.13-.38-38.67,2.03-11.77,10.27-20.52,24.71-26.22,11.6-4.57,21.17-4.37,28.7.6,8.21,5.43,13,13.68,14.37,24.72,2.29,18.44-4.56,36.31-20.49,53.69ZM122.18,150.9c8.05,22.44,16.8,68.28,26.16,136.54,7.1,53.31,14.4,89.03,21.96,107.73,7.51,18.57,17.44,26.01,29.85,22.41,10.8-3.14,18.24-10.16,22.33-21.11,4.1-10.97,5.3-27.16,3.56-48.68-1.64-20.38-1.33-33.41.96-38.99,2.28-5.58,10.44-13.01,24.46-22.28,18.92-12.97,36.4-31.16,52.48-54.63,16.14-23.57,26.17-45.82,30.05-66.8,2.07-10.73,2.77-21.62,2.09-32.67-2.13-34.72-16.91-61.99-44.53-81.67-27.91-19.9-58.64-25.39-92.04-16.31-17.86,4.85-33.99,13.53-48.35,26-13.86,11.62-23.48,22.34-28.88,32.15-5.39,9.8-7.52,20.55-6.42,32.21.74,7.88,2.85,16.57,6.3,26.1ZM206.33,144.79c2.22-10.65,9.65-17.73,22.27-21.23,10.13-2.8,18.35-1.44,24.61,4.09,6.84,6.04,10.64,14.27,11.39,24.68,1.26,17.4-5.33,33.18-19.74,47.38-9.5,9.44-17.9,15.17-25.21,17.22-1.62.46-3.01.51-4.14.15-5.2-2.6-8.69-14.68-10.46-36.35-1.18-14.41-.76-26.4,1.27-35.94Z"/>
      </g>
      <g id="Forma_1_copia" data-name="Forma 1 copia">
        <path class="cls-2" d="M435.07,470.15c7.47-14.13,39.02-36.58,39.02-36.58,0,0-7.06,0-19.93,4.99-12.87,4.99-27.81,13.72-36.53,4.99-8.72-8.73-.83-107.26-.83-107.26,0,0-34.46,81.07-47.33,97.28-12.87,16.21-27.4,17.05-37.36,12.47s-34.04-32.43-34.04-32.43c0,0,.83,5.82,1.66,18.29.83,12.47-4.98,26.19-11.62,26.61-6.64.42-31.55-12.47-31.55-12.47,0,0,22.42,38.25,25.74,54.04,3.32,15.8-4.98,43.24-4.98,43.24,0,0,24.08-19.96,32.38-19.12,8.3.83,14.11,11.64,16.61,31.6,2.49,19.96-19.93,64.85-19.93,64.85,0,0,17.85-24.94,29.89-40.74,12.04-15.8,18.68-16.21,27.4-12.47,8.72,3.74,19.93,26.61,19.93,26.61,0,0,4.15-12.89,9.13-23.28,4.98-10.39,12.04-12.89,28.23-7.48,16.19,5.4,38.19,40.74,38.19,40.74,0,0-18.68-59.87-16.61-72.34,2.08-12.47,24.91-11.64,24.91-11.64,0,0-24.91-8.73-34.87-16.63-9.96-7.9-4.98-19.12,2.49-33.26Z"/>
      </g>
      <g id="Forma_2_copia_9" data-name="Forma 2 copia 9">
        <path class="cls-1" d="M61.5,350.77l.88-4.4s2.64,8.35,6.15,9.67c3.51,1.32,16.25,2.64,21.96-5.28,5.71-7.91,4.39-20.23,2.64-25.5-1.76-5.28-2.2-7.47-4.39-7.03-2.2.44-2.42-1.76-4.39-2.64-1.98-.88-7.91,0-7.91,0,0,0,2.85-3.52,3.51-7.91s.22-14.07-3.51-15.83c-3.73-1.76-10.98-2.2-13.18,0-2.2,2.2-4.39,3.52-6.15,3.52s-4.17,1.76-7.03,4.4c-2.86,2.64-6.15,5.94-5.27,9.67.88,3.74.88,6.16.88,6.16,0,0-2.2,1.1-2.64,2.64-.44,1.54,0,4.4,0,4.4,0,0-5.93,2.42-8.78,7.03-2.85,4.62-6.59,7.47-1.76,15.83,4.83,8.35,11.86,14.95,16.69,14.07,4.83-.88,12.3-8.79,12.3-8.79ZM778.15,160.64c-2.44-7.3-3.05-10.34-6.1-9.73-3.05.61-3.35-2.43-6.1-3.65-2.74-1.22-10.97,0-10.97,0,0,0,3.96-4.87,4.88-10.95.91-6.08.3-19.47-4.88-21.9-5.18-2.43-15.24-3.04-18.29,0-3.05,3.04-6.1,4.87-8.53,4.87s-5.79,2.43-9.75,6.08c-3.96,3.65-8.54,8.21-7.32,13.38,1.22,5.17,1.22,8.52,1.22,8.52,0,0-3.05,1.52-3.66,3.65-.61,2.13,0,6.08,0,6.08,0,0-8.23,3.35-12.19,9.73-3.96,6.39-9.14,10.34-2.44,21.9,6.71,11.56,16.46,20.69,23.17,19.47,6.71-1.22,17.07-12.17,17.07-12.17l1.22-6.08s3.66,11.56,8.53,13.38c4.88,1.82,22.56,3.65,30.48-7.3,7.93-10.95,6.1-27.99,3.66-35.29ZM136.99,905.21c-4.04-1.5-6.97-3.5-7.99-5.72-1.02-2.21-4.63-4.24-9.61-6.32-4.97-2.07-11.03-4.32-15.22-1.05-4.19,3.27-7.23,4.67-7.23,4.67,0,0-2.66-2.13-4.85-1.8-2.19.34-5.53,2.54-5.53,2.54,0,0-6.48-6.08-13.94-7-7.46-.93-13.22-3.98-20.92,6.94-7.7,10.92-11.91,23.6-8,29.18,3.91,5.58,18.19,10.42,18.19,10.42l6.04-1.44s-8.97,8.16-8.59,13.35c.38,5.19,6.11,22.01,19.38,24.63,13.26,2.62,27.97-6.16,33.59-11.43,5.61-5.27,8.12-7.09,6.29-9.61-1.83-2.51.81-4.06.77-7.06-.04-3-4.59-9.97-4.59-9.97,0,0,6.08,1.56,11.99-.15,5.91-1.71,17.82-7.86,17.86-13.59.04-5.72-3.61-15.11-7.65-16.61ZM676.83,733.91c-1.27-5.4-3.05-11.8-8.3-13.33-5.25-1.52-8.25-3.21-8.25-3.21,0,0,.18-3.5-1.42-5.13-1.6-1.62-5.46-3.08-5.46-3.08,0,0,1.16-9.07-2.56-15.85-3.72-6.78-4.65-13.43-18.41-13.26-13.76.17-26.87,4.29-29.17,10.92-2.3,6.63,2.28,21.46,2.28,21.46l14.39,11.33s-21.77-9.72-25.87-6.28-14.68,18.37-8.87,31.02c5.81,12.64,22.01,19.62,29.79,21.13,7.78,1.51,10.82,2.5,11.81-.54,1-3.04,3.88-1.77,6.36-3.62,2.48-1.84,5.55-9.84,5.55-9.84,0,0,2.36,6.01,7.35,9.91,4.99,3.9,17.3,10.12,22.11,6.71,4.8-3.41,10.44-12.12,9.25-16.39-1.19-4.27-1.28-7.93-.05-10.11,1.23-2.19.75-6.42-.52-11.82ZM453.84,112.81c-6.92-4.25-9.28-6.25-12.41-3.77-3.1,2.46-5.04.28-8.68,1.1-3.6.81-19.07,20.73-19.07,20.73,0,0,9.12-20.02,7.09-25.19-2-5.11-8.96-14.44-15.18-12.85-6.07,1.55-15.69,7.29-17.2,11.22-1.5,3.92-3.49,6.96-5.67,8.36-2.16,1.39-4.13,4.97-6.13,9.72-1.99,4.72-4.14,10.38-1.07,13.43,3.12,3.1,4.47,5.55,4.47,5.55,0,0-2.08,2.69-1.76,4.57.32,1.88,2.46,4.51,2.46,4.51,0,0-5.91,6.59-6.84,13.29-.93,6.7-3.85,12.09,6.65,18.04,11.06,6.27,24.64,9.43,30.86,5.27,6.37-4.26,11.45-9.74,11.99-14.04.54-4.3-9.67-12.08-9.67-12.08,0,0,17.69,9.43,24.1,8.43,6.58-1.03,28.99-9.35,32.34-23.96,3.36-14.68-9.15-27.96-16.27-32.34Z"/>
      </g>
    </g>
  </g>
</svg>