<?xml version="1.0" encoding="UTF-8"?>
<svg id="_레이어_2" data-name="레이어 2" xmlns="http://www.w3.org/2000/svg" viewBox="0 0 220.78 289.29">
  <defs>
    <style>
      .cls-1 {
        fill: #fff;
      }

      .cls-2 {
        fill: #472425;
      }
    </style>
  </defs>
  <g id="_디자인" data-name="디자인">
    <g id="_레이어_16" data-name="레이어 16">
      <g>
        <path class="cls-2" d="M220.01,167.12c-.73-2.46-2.05-4.57-3.8-6.21-.43-2.01-1.29-3.89-2.58-5.5-1.66-2.06-3.91-3.51-6.55-4.28l4.77-11.74c.15-.37.28-.75.38-1.13,1.08-3.95.68-7.6.39-10.26-.03-.31-.07-.62-.1-.91.11-1.55-.12-3.15-.73-4.65-.03-.16-.05-.33-.08-.5-.42-2.6-1.21-7.42-4.86-12.27.67-.77,1.23-1.63,1.66-2.6.82-1.18,1.4-2.55,1.65-4.03.35-2.06.05-4.11-.79-5.91,0-.04-.02-.09-.03-.13.78-.14,1.46-.33,1.99-.49,2.76-.57,5.17-2.29,6.6-4.72.34-.42.66-.86.93-1.33.92-1.58,2.14-4.67.78-8.59-.29-1.84-.94-3.32-1.73-4.49.31-2.4,0-4.84-.94-6.99-1.32-3.03-3.85-5.36-6.94-6.37l-.25-.08c-1.48-.8-3.11-1.19-4.73-1.19-1.04,0-2.08.18-3.08.5-.8-.61-1.81-1.26-3.08-1.8.52-1.48.82-3.04.89-4.64,1.08-1.21,2.07-2.7,2.91-4.54l.11-.24c1.22-2.67,3.48-7.64,1.94-13.36-2.05-7.6-9.19-12.7-17.76-12.7-.54,0-1.07.02-1.59.06l-.31.02c-1.55.08-5.33.29-8.56,3.1-.54-.06-1.1-.1-1.65-.1-1.6,0-3.18.28-4.67.82-.03-.07-.06-.14-.09-.21-.47-.97-1.31-2.31-2.75-3.49-.04-1.65-.47-3.31-1.37-4.83l-.33-.55c-.23-.39-.48-.75-.75-1.1l.63-2.34c.57-2.13.42-4.39-.43-6.43-2.48-5.93-7.94-9.62-14.26-9.62-.3,0-.61,0-.92.03-1.9-.12-3.79-.21-5.75-.21-5.1,0-9.3.68-13.22,2.14-2.11.78-3.83,2.23-4.97,4.04-1.04.9-1.88,2.01-2.47,3.25-.09,0-.17,0-.27,0-.03,0-.15,0-.18,0-2.39.02-4.62.9-6.35,2.36-.58.32-1.14.7-1.65,1.13-1.22-.33-2.46-.53-3.69-.6-.61-.12-1.23-.18-1.86-.18-.21,0-.41,0-.62.02-.03,0-.07,0-.1,0-.46.03-.92.06-1.39.08-.98.06-2.02.12-3.12.22-.04-.88-.17-1.73-.4-2.53-.48-1.61-1.35-3.07-2.54-4.25l-1.05-1.05c-1.48-1.58-5.59-5.76-12.1-5.76-.59,0-1.19.04-1.78.11-1.13.13-2.22.46-3.24.95-.15.02-.41.03-.87.03-.37,0-.73,0-1.07-.02-.32,0-.62-.02-.92-.02-.04,0-.29,0-.37,0-4.99.12-10.22,1.15-16.94,3.35-1.68.55-3.19,1.53-4.36,2.85-2,2.25-3.38,4.82-4.2,7.86-.47,1.75-.45,3.54-.01,5.2-1.86-1.41-4.04-2.3-6.47-2.54-.94-.09-1.87-.14-2.77-.14-3.1,0-6.06.55-8.79,1.64-4.79,1.91-7.93,6.05-8.41,11.08-.01.14-.02.29-.03.43-.79.82-1.55,1.82-2.25,3.01-3.51,6-3.66,12.87-.49,17.94-2.96,1.04-5.83,2.53-8.59,4.48-2.21,1.57-3.7,3.96-4.11,6.64-.06.42-.1.84-.11,1.26-.86,2.49-.71,5.24.46,7.66.42.85.94,1.63,1.56,2.31,1,1.76,2.54,3.2,4.42,4.09l5.54,2.62c.81.39,1.67.66,2.54.81-.17.74-.25,1.45-.27,2.11-.77,1.33-1.73,3.27-2.07,5.85-.02.12-.02.23-.03.35-3.45.12-6.31,1.44-8.44,2.62-.27.15-.55.29-.82.43-2.41,1.21-6.9,3.48-9.08,9.25-.56,1.48-.73,2.88-.75,4.07-2.26,2.12-4.7,5.32-5.31,9.76-.87,6.27,2.63,10.55,4.3,12.6l.44.55c1.41,1.77,5.15,6.47,11.58,6.47h0c.36,0,.72-.01,1.08-.05,1.73-.15,3.41-.61,4.99-1.34,1.07.26,2.23.4,3.47.46.03.65.12,1.28.27,1.9-.42,2.44.05,4.97,1.4,7.14,1.04,1.67,2.51,2.98,4.26,3.85.17.28.36.56.56.83,1.93,2.59,4.93,4.03,8.03,4.03h.03c.88.28,1.81.44,2.75.46.1,0,.3,0,.41,0,0,0,0,.02,0,.02l.09.35c.09,1.34.23,2.54.41,3.65-.52.15-1.03.34-1.53.57-.02,0-.04.02-.05.03-4.26.32-7.9,3.33-9.01,7.54-.23.86-.34,1.72-.35,2.58-1.58,2.87-1.71,6.29-.32,9.27.07.16.17.3.25.45-.2,0-.4-.02-.6-.02-3.47,0-6.82,1.45-9.2,3.99-1.73,1.85-2.87,3.9-3.38,6.09-.2.87-.28,1.09-.32,1.2-.72,1.99-.77,3.25-.87,5.53-.11,2.54.56,4.93,1.89,6.96-.74.12-1.48.29-2.2.53-8.88,2.95-14.8,11.98-15.85,18.99-.62,4.13.32,7.99,2.56,10.85-.53,1.9-.5,3.94.14,5.86.25.74.54,1.4.87,2l-.37,4.52c-.4,5.02,2.59,9.93,7.29,11.94,1.32.57,2.76.85,4.27.85,3.98,0,7.53-2.16,9.24-5.61.1-.21.32-.67.55-1.3-.12.41-.23.81-.34,1.22-1.38,5.53-.55,10.94,2.06,15.01-3.15,7.04-2.83,13.76.91,18.56,2.33,2.98,5.76,4.69,9.41,4.69,3.36,0,6.58-1.44,9.19-4,.12,0,.25,0,.37,0,1.82,0,3.63-.5,5.22-1.47,1.4-.86,2.8-2.26,3.79-4.02,1.55-.43,2.95-1.18,4.12-2.19,2,1.88,4.7,3,7.57,3,4.6,0,8.58-2.86,9.99-7.12,1.49-.49,2.87-1.32,4.02-2.47.13-.13.25-.26.37-.4.21-.02.41-.04.61-.07.32-.05.92-.18,1.66-.43.17,0,.34.03.51.03h.02c2.6,0,4.69-.81,6.38-2,.33.11.66.2.99.28.71.16,1.49.24,2.21.24,1.19,0,2.35-.22,3.45-.61,1.45.7,3.08,1.08,4.77,1.08,2.63,0,5.07-.93,6.93-2.56.89.22,1.84.34,2.84.34h0c3.8,0,7.27-1.83,9.54-5.03.74-1.04,1.3-2.29,1.66-3.59.45.06.9.1,1.34.1h0c1.9,0,3.74-.55,5.33-1.54,2.01-.22,3.86-.97,5.5-2.18,1.21.47,2.5.75,3.87.75,2.22,0,4.3-.72,6-1.96,2.11,2.24,5.11,3.59,8.22,3.59.46,0,1-.04,1.45-.1,2.55-.35,4.77-1.66,6.32-3.52,1.21,1.12,2.66,2,4.3,2.53,1,.32,2.04.48,3.07.48,2.03,0,4.04-.62,5.75-1.82,2.57-1.8,4.14-4.7,4.25-7.84l.15-4.36c1.5-.21,2.92-.74,4.2-1.56,1.55.9,3.31,1.38,5.16,1.38,2.28,0,4.47-.74,6.33-2.13,1.57-1.17,2.74-2.77,3.4-4.57.64.17,1.28.28,1.91.33.26.02.52.03.78.03,2.43,0,4.78-.88,6.61-2.5,2.03-1.79,3.25-4.32,3.38-7.02l.51-10.62.78-13.59c.19-3.32-1.28-5.75-1.85-6.7-1.81-3.01-5.15-4.89-8.66-4.89-.92,0-1.81.13-2.67.37.43-1.02.69-2.11.76-3.22.06-.02.11-.04.17-.06.9.19,1.84.3,2.82.31h.34c8.9,0,12.64-5.26,13.84-7.53,2.09-3.96,2.52-8.83,1.18-13.36Z"/>
        <g>
          <g>
            <path class="cls-1" d="M115.45,231.57l-.78.46c-.18.1-.6-.46-.66-.71-.3-1.26-.31-4.21,1.11-4.36.38.5.86,1.41.78,1.92l-.45,2.68Z"/>
            <path class="cls-1" d="M145.62,218.6c.84,1.19.07,4.86-.84,4.58-1.38-.42-.77-4.81.18-4.92.16-.02.55.19.66.34Z"/>
            <g>
              <path class="cls-1" d="M104.83,254.15c-.1,1.97.43,4.05.04,4.84-.1.22-.78.15-.93-.03-.39-.46-.82-1.67-.85-2.43-.14-3.66-.09-6.99.1-10.64.1-1.77-1.18-.99-1.23-2.41,0-.3.38-.75.62-.96l.9-.81.74-10c.06-.8.64-8.69,1.31-8.4l.77.33c.14.54.34,1.35.3,1.91l-.86,13.34c2.94-4.12,5.25-10.17,6.15-15.23l-.13-1.69c-.08-1.04,2.87-.46.97,6.99-1.09,4.27-2.93,8.36-5.1,11.79-.19.29-.39,1.04-.28,1.3,1.95,4.81,2.44,6.18,5.15,10.48,1.5,2.37,3.4,2.02,3.39,2.74,0,.19-.15.67-.26.83-1.65,2.33-4.51-1.01-5.67-2.99-1.61-2.73-2.94-5.74-4.18-8.75-.03-.07-.18-.3-.22-.36-.05-.09-.25.36-.26.54l-.47,9.59Z"/>
              <path class="cls-1" d="M122.75,245.72c-.06.25-.29.66-.45.72s-.63-.04-.77-.16c-.23-.2-.6-1.09-.6-1.48l.1-6.5.06-2.92-.14-.64c-.65,2.32-1.17,4.33-1.51,6.66l-1.08,7.34c-.04.26-.4.91-.61.92-.67.01-1.23-1.01-1.18-1.92l.81-14.97c.02-.37.33-2.03.7-2.22.64-.33.93,1.53.92,1.65l-.2,4.08c0,.12.16.4.19.28l.15-.58c.35-1.39,1.35-5.46,2.3-5.8.59-.21,1.5.61,1.52,2.24l.07,5.27,1.48-4.71c.14-.44.63-1.2.95-1.55.52-.58,1.45-.19,1.67.59.96,3.39-.76,9.38.08,15.51.03.23-.23.9-.4.86-2.19-.5-1.51-7.28-1.45-9.32l.11-3.87c-.26.5-.54,1.07-.65,1.53l-2.05,8.98Z"/>
              <path class="cls-1" d="M141.71,245.27c-.14.53-1.59-.32-1.75-3.02-.36-6,.3-7.28.22-12.97-.95,2.62-1.64,5.16-2.13,8.05l-.96,5.78c-.03.2-.29.64-.44.71-.74.38-1.39-1.35-1.43-2.13-.43-8.81.55-19.18,1.6-27.9.03-.28.49-1.02.73-.99.52.07,1,1.16.93,1.98l-1.03,12.27c-.21,2.45-.35,4.69-.29,7.31l1.82-6.53c.47-1.05,1.04-3.08,2.18-2.57,1.04.47.96,3.89.89,5.19l-.46,8.88c-.14,2.79.43,4.65.1,5.93Z"/>
              <path class="cls-1" d="M130.55,244.49c.62,1.14,2.62-3.82,2.84-4.41.11-.29.44-.94.63-.84,1.3.66-1.12,8.3-3.39,7.65-3.84-1.11-2.09-11.66-1.36-14.99.32-1.46,1.53-5.88,3.01-5.77,2.15.16,2.36,6.09.9,7.06-.18.12-.7-.41-.7-.69v-1.88c0-.56-.01-.93-.04-1.44-1.3,1.34-2.22,8.41-2.36,10.34-.08,1.18-.02,4.08.47,4.97Z"/>
              <path class="cls-1" d="M145.21,241.48c0,.23-.33.86-.48.81-1.37-.38-1.48-2.91-1.46-4.4.03-2.29.14-12.26,1.34-13.16.38-.28,1.21.71,1.12,2.2l-.48,7.21c-.16,2.44-.15,4.63-.04,7.33Z"/>
              <path class="cls-1" d="M114.9,247.48c-.05.87.24,3.6-.06,3.8-.13.09-.6.08-.73-.04-.36-.34-.84-1.44-.86-2.05-.07-2.08-.21-15.24,1.32-15.49,1.28-.21.89,3.34.86,3.91l-.54,9.87Z"/>
              <g>
                <path class="cls-1" d="M42.74,253.79l1.38-4.22c.3-.93.88-4.18.45-5.01-.36-.71-1.94,1.04-2.37,1.66-1.72,2.52-6.66,11.53-2.91,13.8l2.3,1.39c.92.56,1.96,1.28,2.61,2.31,2.41,3.87.67,8.75-1.17,12.24-1.06,2.01-3.55,4.72-5.3,2.47-3.01-3.85,2.23-12.59,2.52-11.27.02.11.11.48.07.58l-.98,2.58c-.38,1-1.83,5.62-1.02,6.01,1.04.51,2.92-1.99,3.52-3.04.91-1.59,1.59-3.41,1.98-5.27.36-1.72-.35-3.26-1.57-3.94l-3.15-1.77c-2.74-1.54-3.39-5.38-2.52-8.86.92-3.69,2.49-6.9,4.54-9.75.49-.67,1.11-1.3,1.73-1.75.78-.57,1.73-.17,2.27.71,1.56,2.52.72,5.84.05,8.84l2-1.06c.15-.08.45-.58.46-.8l.26-3.23c.1-1.18.31-3.33.95-3.93.46-.43.94,1.37.87,2.86l-.2,3.93,1.9-.68.6-.95c.09-.15.52-.09.64.03l.94.94c.1.1.32.42.33.57.04.69-.36.31-1.08,2.09-.15.37-.74.83-.94.56l-.63-.83-2.07,1.05-.51,10.89c-.14,2.91-.11,8.96.54,11.7,0,.13-.3.57-.42.65-1.39-.63-1.82-3.78-1.88-5.37-.2-5.78.03-11.22.42-17.1l-2.41.83c-1.67.57-.74,1-1.81,1.12-.18.02-.47-.77-.4-.98Z"/>
                <path class="cls-1" d="M68.62,270.08c-1.14-2.97-.44-9.95-.49-13.13-.34.05-.73.11-.89.05-.63-.23-.93-1.68-.33-2.26l.99-.94c.19-.18.49-.75.51-1.04l.83-11.06c-1.24.55-2.73,3.25-3.43,2.94-.44-.2-.7-1.71-.42-2.18.49-.81,1.04-1.58,1.68-2.18l2.38-2.22c.45-.42.22-.94.84-1.8.27-.38.71.78,1.53.27,1.58-.97,4.87-3.23,5.87-.98.27.62.1,1.48-.35,1.62-2.69.85-3.71,1.43-6.1,3.03l-.78,10.75c-.11,1.57,2.66-1.62,3.91-.07.18.23.28,1.2.06,1.35l-1.89,1.29-2.4,1.71-.35,10.58c-.06,1.69.38,4.07.23,4.53s-1.18.33-1.41-.26Z"/>
                <path class="cls-1" d="M94.48,251.79c-.36,1.18-1.05,5.96-2.4,5.9-2.46-.12-2.36-12.22.45-17.27.69-1.23,1.92.12,1.95-.04.02-.09.1-.44.11-.56l.69-8.95c.1-1.36.22-2.57.81-3.02.94-.72.8,2.76.77,3.41-.37,6.81-.79,17.54-.41,24.12.01.22.59,3.44-.22,3.26-.39-.09-1.04-.88-1.1-1.35l-.48-3.94-.16-1.56ZM92.07,254.33c.76-1.56.96-2.97,1.23-4.49l.77-6.02-.26-1.26-.77.81c-.68,3-1.45,7.94-.97,10.96Z"/>
                <path class="cls-1" d="M54.6,270.08c-.31-.68-.56-1.53-.57-2.19-.14-5.88.08-11.46.58-17.28.03-.29.57-.93.77-.8.31.2.58,1.03.59,1.46l.03,3.55c.64-1.69,1.4-5.75,3.01-6.4.52-.21,1.15.57,1.3,1.18.29,1.17-1.14.92-1.59,2.03-1.98,4.83-2.73,11.31-2.99,16.73-.02.43-.12,1.08-.19,1.53-.04.27-.81.48-.94.2Z"/>
                <path class="cls-1" d="M76.46,263.95c-.37.37-1.18-1.02-1.17-2.51l.02-7.48c0-1.15.07-2.28.13-3.48.05-1.04.23-10.55,1.85-6.1l-.02,4.22c.36-1.18,1.85-7.41,3.52-6.55.5.26.83,1.27.85,1.84l-.57.39c-.33.23-.91.7-1.09,1.12-.61,1.47-1.1,2.86-1.44,4.43-1.06,4.86-1.2,6.79-1.54,11.83-.05.77-.06,1.82-.55,2.31Z"/>
                <path class="cls-1" d="M86.58,258.02c1.72-.61,2.53-5.17,3.26-5.12.33.03.59.72.26,1.75-.57,1.8-1.82,5.5-3.41,5.5-1.47,0-2.23-2.83-2.34-4.6-.22-3.86.25-7.59,1.32-11.17.36-1.21,1.22-3.53,2.31-3.31.28.06.75.59.88.96,1.19,3.48-.18,8.38-2.91,10.09-.09,1.41-.17,5,.63,5.89ZM86.35,249.54c1.37-1.58,1.82-3.72,1.75-5.92-.77.13-1.68,4.97-1.75,5.92Z"/>
                <path class="cls-1" d="M83.02,254.53c-.08,1.56.18,6.1-.09,6.14-1.38.22-1.59-2.59-1.6-3.95-.02-2.14,0-11.16.93-12.3.1-.13.56.01.66.15.21.32.5,1.22.49,1.64l-.11,2.74-.28,5.58Z"/>
                <path class="cls-1" d="M52.4,265.78c-.05,1.14.3,4.39-.11,4.41-.98.04-1.42-1.55-1.46-2.21-.23-4.49-.04-8.51.39-12.92.03-.29.38-.99.6-1.09.29-.13.89.7.91,1.09.04.92.05,1.84.01,2.73l-.35,7.99Z"/>
                <path class="cls-1" d="M60.63,258.31c-.4.18-1.07-.19-1.2-.65l-.21-.7c-.05-.18.32-.57.47-.64l1.42-.63c1.22-.54,4.79-2.48,4.54.39l-2.47,1.11-2.54,1.12Z"/>
                <path class="cls-1" d="M83.43,238.08c.94,1.45-.09,4.68-.78,4.27-1.16-.69-.73-4.13.08-4.54.15-.07.6.11.7.27Z"/>
              </g>
              <g>
                <path class="cls-1" d="M161.44,205.92c-1.27-2.02-2.83-2.84-4.48-1.86-3.38,2.01-5.91,6.74-6.58,12.54-.17,1.48-.03,3.19.48,4.33.15.34,1.04.49.96.13l-.3-1.42c-.51-2.38,2.55-11.63,7.45-12.63.62-.13,1.42.16,1.91.67,1.48,1.53.97,6.76.4,9.04-.75,2.99-2.98,10.06-4.79,11.59l.64-12.84c.07-1.4.04-2.59-.19-4.25-.07-.48-1.2-1.09-1.24-.62-.57,6.75-.92,13.3-1.24,20.15l-1.89.98,1.65,2.49-.16,10.04c-.01.66.3,1.78.61,2.25.23.35.8.6,1.13.55l.46-13.51c4.55-4.24,10.44-19.24,5.17-27.61Z"/>
                <path class="cls-1" d="M188.82,211.56c.48-1.07.78-1.98,1.38-2.54l-.58,18.14c-.04,1.14-.28,5.99,1.11,4.95l.61-9.41,2.9,3.2c.3.33,1.01.18,1.15-.22.6-1.7-2.11-3.54-2.88-4.37,1.8-3.08,3.33-6.35,4.12-10.42.44-2.26-.08-5.09-1.57-6.34-.95-.79-2.17-.09-3.1.23-.2-.91-.48-1.78-1.11-1.95l-.53,3.15c-.78.8-2.95,4.49-1.51,5.59ZM191.83,207.4c.88-1.06,2.23-1.12,3.47-.66,1.42,1.26-2.81,10.62-3.73,11.56l.27-10.9Z"/>
                <path class="cls-1" d="M170.95,212.09c-.07.26-.16,1.06-.29,1.33-.55,1.14-2.45,4.54-1.22,6.28l.98-2.45c-.44,9.01-.77,17.77-.8,26.83,0,1.08.39,2.08,1.25,2.36l.49-14.35c.88-.3,1.51-.84,2.11-1.79,2.3-3.68,4.2-11.23,2.2-16.47-.93-2.43-2.71-2.84-3.9-1.85-.19.15-.74-.15-.81.11ZM174.57,214.13c.38.75.55,1.53.68,2.66-.25,4.73-1.21,8.99-3.67,12l.42-13.8c.26-1.19,1.68-1.29,2.58-.85Z"/>
                <path class="cls-1" d="M197.59,224.85c.11-.13.38-.52.4-.92l.92-14.19c1.27,4.78,2.78,9.94,2.79,14.39.12.96.5,1.75,1.09,1.79l.52-10.71.78-13.58c.02-.26-.33-.8-.44-.98-.08-.14-.53.09-.55.35l-1.26,13.94c-.85-1.97-2.48-9.91-2.96-10.76-.11-.18-.69-.02-.71.24-.09,1.08-1.84,21.96-.57,20.44Z"/>
                <path class="cls-1" d="M167.28,215.65c-.69-.94-1.76-.82-2.13.48-1.3,4.58-3.76,15.45-1.12,20.12.34.61,1.02,1.17,1.39,1.17.33,0,.99-.56,1.24-1.15,1.8-4.26,2.59-9.35,2.29-14.66-.13-2.31-.53-4.41-1.68-5.96ZM164.7,235.42c-.76-2.77-.58-5.62-.34-8.12.4.04.76-.15.82-.58l1.02-7.4c.1-.73.48-1.38.9-1.93,1.85,2.9.18,17.16-2.39,18.03Z"/>
                <path class="cls-1" d="M182.97,226.31c.27,2.11,1.18,4.01,2.6,4.06,1.3-1.7,2-3.95,2.5-6.39.87-4.27,1.56-11.4-.92-15.2-.26-.4-.75-.89-1.03-.94-1.23-.22-1.96,4.27-2.33,6.03-.82,3.97-1.37,8.1-.82,12.45ZM184.22,220.45l.71-.39.43-4.1c.22-2.12.55-3.81,1.35-5.74.5.86.73,1.64.81,2.57.46,5.33-.29,10.35-2.01,14.58-.19.47-.68.83-1.09.76-.54-2.56-.5-5.36-.2-7.67Z"/>
                <path class="cls-1" d="M177.71,230.24c.33,1.15,1.4,2.75,2.17,2.18,2.31-1.67,2.96-9.28,1.96-7.51-.55.98-2.26,6.39-2.8,5.54-1.35-2.11-.09-15.62,1.7-18.65.58.97-.86,5.65.9,5.29.62-1.75.72-4.36.17-6.46-.27-1.03-1.2-2.28-1.8-1.53-2.12,2.68-2.91,10.64-3.03,15.03-.06,2.05.17,4.16.72,6.1Z"/>
              </g>
              <g>
                <g>
                  <path class="cls-1" d="M68.57,227.78c-3.68-2.21-3.06-11.39-2.66-15.19.45-4.23,1.31-8.2,2.86-12.09.49-1.24,1.2-1.97,2.28-2.15.43-.55.79-1.01,1.28-1.45,1.49-1.37,3.38,1.13,3.84,2.86,1.9,7.04.11,17.77-2.64,24.47-.74,1.81-2.72,4.91-4.96,3.56ZM68.6,225c.26.54,1.13.71,1.56.25.49-.53,1-1.13,1.32-1.75,2.94-5.66,4.15-13.99,3.85-20.46-.05-1.07-.48-3.75-1.24-4.12s-1.6,1.27-1.9,2.02c-1.91,4.71-.31,9.14-.87,9.27-.84.2-1.36-1.2-1.41-1.58l-.39-3.14-.03-.52c-1.54,4.87-3.03,15.58-.89,20.03Z"/>
                  <path class="cls-1" d="M83.48,223.58c.14,1.3-2.54,1.62-2.17-6.87.15-3.42.29-6.71.68-10.09l1.43-12.61c.04-.36.35-1.12.49-1.43.05-.11.6-.08.65.03.78,1.61.39,3.85.21,5.83l-1.32,14.84c-.24,2.69-.51,5.25-.22,7.91l.25,2.39Z"/>
                  <path class="cls-1" d="M79.63,214.97c-.2,1.76-.29,7.55-.45,7.6-1.02.36-1.57-1.46-1.59-2.18-.08-3.99.23-7.73.83-11.66.06-.39.37-1.08.62-1.46.17-.26,1.49-.18,1.1,3.22l-.51,4.47Z"/>
                  <path class="cls-1" d="M79.97,201.12c1.46.09.8,4.09-.21,4.24-.22.03-.74-.33-.8-.59-.34-1.39.05-3.71,1.02-3.66Z"/>
                </g>
                <g>
                  <path class="cls-1" d="M18.69,218.73c.09-.69.43-1.57.91-1.96.28-.23,1.11.53,1.14.91.07.99.13,2.04.01,3.06l-1.14,9.66c-.02.15.1.63.16.58,1.73-1.46,3.92-5.27,4.92-7.48,1.11-2.47,2.24-6.38.77-8.76-1.25-2.03-4.74-.14-6.2,1.02-2.21,1.76-3.74,4-4.86,6.65-.73,1.72.12,4.08-.83,3.4-3.28-2.34,1.28-12.35,8.11-14.62,3.2-1.06,5.73,2.54,6.22,5.56.71,4.44-.52,7.72-2.51,11.59-1.4,2.73-3.59,5.19-5.97,7.07-.3.24-.42,1.21-.46,1.6l-1.01,9c-.02.15-.13.49-.19.61s-.51.09-.64.03c-.67-.29-1.32-1.16-1.25-1.95l.63-7.8c.14-1.74-1.19-1.38-1.61-2.67.48-.7,1.85-.5,1.98-1.42l.76-5.68,1.11-8.41Z"/>
                  <path class="cls-1" d="M60.76,232.24c-1.46-.49-1.36-3.66-1.64-4.98-.53,1.49-1.09,2.98-1.97,4.4-.42.67-1.69.35-2.09-.27-1.48-2.3-.57-7.65.1-10.33.44-1.78,1.12-3.35,2.08-4.94.24-.4,1.27-1.07,1.66-.83l1.23.75c.38-.02,1.11-.08,1.42.06s.54.89.49,1.27c-.56,4.06-.88,7.91-.76,12.04.03,1.03.51,1.78.3,2.52-.05.18-.64.37-.82.31ZM56.78,228.78c.51-.64.84-1.88,1.02-2.69l1.65-7.36c.06-.25-.13-.74-.32-.76-.68-.07-1.02.46-1.31,1.31-1.04,3.08-1.57,6.25-1.6,9.52,0,.09.17.46.22.39l.34-.42Z"/>
                  <path class="cls-1" d="M48.49,236.43c.03.28-.18.98-.39.98-2.43-.06-2.02-7.69-1.91-9.48.42-7.22,1.27-14.21,2.36-21.35.08-.55.4-3.04,1.1-2.74.82.35.9,2.1.84,2.66l-.45,4.71-1.72,17.77c-.24,2.5-.07,5.12.18,7.46Z"/>
                  <path class="cls-1" d="M52.82,236.95c.02.15-.11.58-.22.61-1.88.54-2.21-4.96-2.21-6.21,0-6.68.81-13.94,1.67-20.61.06-.48.71-7.36,1.85-6.48.47.37.83,1.61.76,2.32l-1,9.2-1.05,11.7c-.23,2.6-.23,5.14.03,7.71l.18,1.77Z"/>
                  <path class="cls-1" d="M35.51,238.11c-.84-.07-1.19-1.27-1.19-2.03.04-5.95.57-11.69,1.44-17.57.04-.25.63-.85.86-.77.44.17.85,1.07.82,1.53l-.05,3.46,1.73-3.92,1.68-1.98c.87-.08,1.4-.02,1.81.71.94,1.68-1.27,1.2-2.12,2.87-2.5,4.94-3.59,10.93-4.11,16.31-.04.43-.51,1.42-.87,1.39Z"/>
                  <path class="cls-1" d="M29.47,236.83c.99.31,2.99-3.29,3.45-4.26.11-.22.57-.75.78-.71.29.05.54.96.41,1.28-.69,1.66-2.52,5.94-4.46,5.87-1.78-.07-2.67-2.45-2.76-4.26-.22-4.52.76-8.87,2.79-12.89.57-1.12,1.97-2.45,2.78-1.52.47.55.88,1.28.94,1.93.29,3.19-1.16,7.32-4.35,8.6-.34.93-.6,5.65.43,5.97ZM32.1,223.74l-.09-1.21c-1.04.53-2.12,4.27-2.37,5.7,1,.04,2.21-3.76,2.46-4.49Z"/>
                  <path class="cls-1" d="M44.01,230.26c-.15,1.38.16,5.05-.34,5.04-1.12,0-1.59-1.15-1.62-1.76-.12-2.8-.05-5.44.3-8.23l.61-4.83c.04-.35.53-1.11.85-1.24.35-.14,1.11.69,1.1,1.1-.02,1.07-.08,2.15-.19,3.19l-.72,6.73Z"/>
                  <path class="cls-1" d="M44.66,212.78c1.7-.09.92,4.52-.29,4.52-1.48,0-1.19-4.44.29-4.52Z"/>
                </g>
              </g>
            </g>
          </g>
          <g>
            <path class="cls-1" d="M46.94,27.73c-2.41-.24-4.71-.02-6.87.84-3.36,1.34-1.98,4.73-1.38,7.25l3.16,2.47-3.89-1.23c-1.79-.57-2.82.35-3.66,1.79-1.31,2.24-2.14,5.71-.4,7.93,2.23,2.86,6.13,3.83,9.75,3.74l2.06-1.48c.49-.36,1.05-1.59,1.41-2.12,1.32,2.27,3.85,4.36,6.68,4.03,2.35-.28,3.52-3.44,2.89-5.46.58-2.73.3-5.44-1.53-7.46l-2.48-.94c0-1.2-.97-1.75-1.76-2.28-.15-2.43-1.05-6.79-3.97-7.08Z"/>
            <path class="cls-1" d="M196.79,178.53c2.04.26,4.05-1.75,4.5-3.15.6,1.65,1.56,2.6,3.5,2.63,2.06.03,4.25-.4,5.2-2.2.95-1.79.99-3.96.43-5.85-.57-1.93-2.35-3.05-4.79-2.8.87-1.58,1.44-3.95.2-5.49-1.3-1.62-4.82-1.31-6.32-.59-4.68,2.26-2.74,4.46-3.42,5.95l-.97,2.13c-1.47.93-3.5,2.28-3.3,4.26.21,2.05,2.53,4.81,4.95,5.11Z"/>
            <path class="cls-1" d="M16.69,125.67c2.38-.2,4.28-2.26,5.35-4.4l1.45,2.48c.61,1.04,2.43,1.01,3.5,1.05,4.29.14,7.1-3.2,7.02-7.36-.05-2.43-.1-5.01-1.86-6.95l-2-1.02c-.58-.3-1.95-.31-2.67-.37,1.37-2.32,1.97-5.95-.02-8.11-1.88-2.04-4.64-.73-6.55.32-2.13,1.18-4.4,1.86-5.38,4.46-.29.77.17,2.53.04,3.32-.65.82-1.04,1.7-.97,2.73-1.9,1.26-4.23,3.11-4.57,5.61-.29,2.1,1.18,3.72,2.39,5.22,1.05,1.3,2.37,3.19,4.26,3.03Z"/>
            <path class="cls-1" d="M31.74,202.75c1.62,1.16,4.36,1.03,6.01.08.63-.36,1.02-.98,1.27-1.66.37-1,.03-2.13-.78-2.82l-.13-.11c3.26,0,3.36.14,5.45-2.21.77-.87,1.5-2,1.54-3.22.09-2.95-2.86-4.89-5.43-5.18-.56-.06-1.12.08-1.59.38-2.4,1.49-1.26,1.37-2.67,4.29-.11-.52-.15-1.15-.1-1.74.09-1.09-.44-2.09-1.27-2.7-1.02-.75-2.47-.56-3.33.36-.44.47-.82,1.03-.94,1.52-.84,3.61-.79,1.55-.94,4.89-.03.76.31,1.25.79,1.6s.78.86.99,1.4c.02.04.03.08.05.12.21.47.35.98.28,1.49-.15,1.21-.24,2.75.81,3.5Z"/>
            <path class="cls-1" d="M179.14,62.29c1.98,1.42,8.03-.56,9.64-2.85,1.2-1.7,1.21-3.97.56-5.91l-2.75-.87,3-.82c1.96-.54,3.14-1.83,3.98-3.7.93-2.06,2.13-4.53,1.5-6.86-1.07-3.97-5.17-5.56-8.97-5.28-1.19.09-2.52.02-3.27.93l-1.65,2c-1.38,1.67-.28,5.01-.95,6.57l-.88-2.96c-.78-2.62-4.02-4.53-6.62-2.86-1.28.82-2.23,3.34-2.09,4.75.58,5.94-.67,1.34.8,7.48.41,1.71,1.93,2.02,3.27,2.24.25.85,1,1.7,1.82,2.18.27,2.02.63,4.54,2.6,5.96Z"/>
          </g>
          <path class="cls-1" d="M150.9,146.87l-2.01.74c-1.16-1.43.01-3.31,1.13-4.1.09-.07-.24-.42-.36-.44-.3-.06,1.01-.78.94-1.02l-.2-.71c.42-.48,6.04-3.63,5.81-2.33.03-.15.13-.7.17-.61l.28.62c2.3-.89,4.86-1.4,7.53-2.03,5.91-1.38,10.85-2.84,17.19-2.48-.51-.65-.74-2.19-1.09-2.57l-2.61-3.22c1.04-.17.75-.39.28-.65-.58-.33-1.47-.48-.53.27-.22.47-4.07.14-5.58.19-4.57.15-2.26-.34-5.39,1.34-2.58,1.39-5.89,1.73-8.41,2.68l-.17.64c-.03.09-.3-.02-.32-.12l-.1-.66c-4.04,2.34-8.79,1.67-11.71-2.02l-.78.32c-.2.08-.23-.82-.14-1.03.23-.55-.52-.89-1.1-1.35-.43-.34-1.16.11-1.91.31-.28.07-.42-.6-.44-.9-.02-.27.55-.64.8-.81-.36-.43-.3-.72-.02-.86-.56.3-.36-1.96-1.14-2.67l.84-1.98c.43-1.01,1.56-1.63,1.82-2.89-.79-.02-1.2.64-2.07,1.33.08-1.73,1.58-3,2.99-3.92,4.78-3.12,14.35-9.52,19.62-10.46l1-.79c.24-.19.85.35,1.09.44l1.44-.44,1.41.64c.4.18.91-1.25,1.58-1.13,3.1.59,2.41.5,6.26.37-.15-.76-.16-1.23.31-1.08.26.08.91.31,1.27.46.25.1-.25.62-.35.92,1.04,0,.52-.59.81-.72.21-.09,1.05-.16.93-.04l-.51.54c-.09.09-.02.12.25.15l.39.04c.13.01.05-.24.03-.64.05,0,.43.11.48.23l.28.66s.33-.4.39-.48c.09-.11.45-.18.44-.05l-.05.96c4.17.54,7.31,3.14,10.79,4.99,10.49,5.56,8.7,13.14,10.05,15.64.17.31-.03.47-.03.47.16,2.95.93,6.11.13,9.04l-5.67,13.96c-.62,2.27-4.54,6.93-6.88,8.58-.68-1.08.05-1.41-.19-2.35l-.79,1.33c-.15.25-.82.39-1.1.33l.25-.57c1-2.33-2.55,4.1-4.23,2.71-.26-.11.02-1.08-.26-1.07l-1.4-.54-.97-.68c-.58-.4-.45,1.82-1.92,2.15-.19-.92-.38-1.57.11-2.6l-.86.26c-1.12.35.52-3.08-.16-2.94l-.8.13c-.11.02-.45.08-.37,0l.63-.59c-.84-.34-.25-1.2-.19-1.93.12-1.4.26-2.68,1.06-3.97.41-.66,1.05-1.87.21-2.49-7.07,1.48-10.98.38-17.64,2.35-2.05.61-4,2.05-6.17,2.25-.17-.16-.55-.88-.79-.78l-1.08.49c-.2.09-.78.2-1.08.23-.27.02-.05-.67-.09-.91-.11-.28-.32-.5-.23-.64l.56-.83c-.86.03-1.58.23-2.68.61l1.06-1.23ZM177.79,111.7c-.23-.57-4.98-2.16-5.24-.54,1.75.39,3.45.62,5.24.54ZM163.14,113.77c-1.71-.08-3.71.27-4.98,1.68,1.86,0,3.27-1.05,4.98-1.68ZM182.55,123.93c-.03.35,1.12-.22.95-.45l-.62-.87c-.31-.44-.73-1.56-1.27-1.84-.45-.24-1.32-.24-1.85-.23l1.89,1.47-.47.71c.68-.19.76-.25.98-.24s.92.33.83.52-.42.7-.44.93Z"/>
          <path class="cls-1" d="M190.28,188.85l.49.27c.12.07-.34.39-.44.49l-.87.86c-.2.2.43.84.35,1.12-.85,2.92-9.86,6.55-10.82,6.61-4.42.27.96,4.01-12.23,3.94-3.64-.02-1.7.06-5.74-3.46-3.29-2.88-5.53-5.91-6.45-10.03-.35-1.57-1.03-3.07-.87-4.79.15-1.71-.66-3.96.31-5.52.77-.86,2.5-.63,2.01-2.3l4.12,1.54c1.14,1.12,2.32,2.92,3.51,4.42,2.97,3.76,1.83,7.34,6.75,6.68,6.62-.89,8.44-5.36,16.49-5.36-1.32,2.23,3.01.06,4.1.45l-1.15,1.34c.63.46,1.18.05,1.98-.26l-1.03,1.35c-.21.28.63.72.91.9l-1.41,1.76ZM169.48,189.13c-.18.01.05.42.22.39l.76-.13c.28-.05-.01-.34-.16-.33l-.83.07Z"/>
          <path class="cls-1" d="M175.03,172.32c-.2.44-.42.66-.79.65l.1-.52c.03-.16.52-.12.69-.12Z"/>
          <path class="cls-1" d="M174.73,172.31c.91-.65-1.35-.33-1.33-.29.1.3.42.9.52.94l-6.95,1.25c-.15-.04-.17-.49-.04-.52s-.38-.02-.52,0c-.1.02-.33.21-.39.27l-.36.4c-.07.07-.26-.11-.28-.2l-.07-.37-8.98.09c-1.04.01-10.47-1.29-8.83-3.34.14-.17.62-.02.95.01l-1.3-2.35c-.17-1.8,1.17-3.26,3.34-3.7.64-.13,1.3-.79,2.21-.7l6.53.45.38-5.25.65,1.12c.56-4.8-1.92-2.65.81-6.85.05-.08,3.72-2.25,3.59-2.18.16-.09.19.44.34.65l.57-.73c.1-.13.56.26.7.4.19-.29.75-.7,1.17-.7.52,0,.99.52,1.14.9l.93,2.45c.06.16.15.57.2.73s.41.27.56.16l.97-.64c1.86,4.11,0,2.77,1.24,8.28,3.52-.68,5.48-.97,8.78-.55l1.28,1.95c.15.1-.03.63.16.62l.16-.03c.2,0,.67.1.84.16.13.04.1.39-.01.45s-.38.16-.58.2l-.37.25c-.21.04.54.49.64.68.09.17-.72-.05.16.05l-1.51.79.12.91c.03.22-.49.37-.81.57-.05.84-.34,1.23-1.34,1.52-.52.15.97.24.36.09-.79,1.58-3.06,1.94-5.03,1.83l3.06-1.08c-1.34.11-2.66.59-3.67,1.33ZM172.03,170.21l.65-.16c.14-.04-.9-.39-.74-.2l-.66.31c-.12.06.14.2.27.17l.47-.12Z"/>
          <path class="cls-1" d="M134.83,198.58c-1.68,4.16-2.18,5.77-4.8,9.87-.88,1.38-2.28,2.36-2.93,3.98-.17.43-1.55.37-.98,1.29l2.94-1.88c-1.08,2.45-3.41,3.45-5.49,4.56-.12-.54-.07-.97.18-1.04l1.16-.37c-1.34-.64-1.97.91-3.19,1.19l-4.4,1c-.43.1-.98.8-1.46,1.03l.49.35c1.09.77-7.73,2.37-15.14-2.32-2.93-1.86-5.26-3.97-7.48-6.38-1.6,2.65-3.29-5.51-3.44-6.21-.75-3.51-1.08-6.72-.99-10.41.02-.86.95-10.73,1.64-9.56l.41.71,1.26-3.19c.36.02,1.2.08,1.42-.19s.59-.84.77-1.1c1.03.08,2.22-.21,2.88-1.37.2.83.34,1.89.7,2.04l.7-.84c.13-.15.76-.31.81-.12.06.23.14.73.17.91.26.02.8.02,1.07.11.4.13.09,1.37.33,2.57.06.29.91.28,1.17.51.67.6.36,2.22.67,3,.56,1.44,1.07,1.25.58,3.03,1.03-.21,10.88-2.47,10.92-1.88l.04.61,4.01-.24-1.18.51,4.05.07.99-7.01,1.75-2.22c.21.31.32.62.54.6l1.64-.21c-.68-.85.21-1.01.71-1.43.87-.74,1.12.31,1.86.89l.57.45c.11.08.31-.06.3-.2-.02-.19.05-.59.16-.91,3.14,3.76,5.42,9.19,4.41,14.17l-1.14,5.62.95.14-.4-.47c-.11-.13.03-.43.17-.53s.7-.13.69.04l-.07.84ZM115.42,206.21c1.21-.6,2.36-1.35,3.67-2.16-.43-1.41,1.03-2.2,1.92-2.44.14-.04.44-.73.46-.88s-.28-.25-.34-.09c-.04.1-.29.33-.43.38l.68-3.11c-.57.19-1.07.29-1.34.13l1.49-.88c-2.43-.37-4.36.74-6.51.84-3.36.16-1.77,1.62-6.74,1.54-1.06-.02-2.07.87-3.25-.06l1.08,4.43c2.21,1.65,4.98,2.77,7.69,2.28.07.79.35.65.68.48l.93-.47ZM110.88,206.84c-.81-.24-1.23-.36-1.76-.19.59.37,1.24.33,1.76.19ZM124.48,208.65l.81-1.68c-.56.36-1.76,1.01-.81,1.68ZM102.8,215.2c-.17.41-.29.62-.18.62h.71c.12-.01.11-.41,0-.45l-.53-.17Z"/>
          <g>
            <path class="cls-1" d="M142.98,152.3c-3.69,1.28-7.41,1.74-11.3,2.18-1.26,1.61.28,8.01-1.43,8.3l.83.22c-.1-.03-.18,2.24-1.03.6l-1.4,4.25c-1.3.68-.48,1.98-1.58,2.35-2.28.77-1.86,5.59-2.71,4.62l.42.47c-.3.21-1.01.32-1.52.19-.49-.12-.71-.66-1.08-1.35-1.18.81-1,1.79-1.53,3.19l-1.32-2.9c-.27-.6-1.7-.09-2.39.51l-.82-3.39-1.03.06c-.23.01-.55-.35-.77-.5l-.38.28c-.08.06-.27-.17-.26-.26s.25-.4.24-.59c-.16-2.95-.08-6.92,0-10.11.11-3.91,1.59-4.95.81-8.39-.5-2.18.03-4.85.26-7.03.25-2.37-1.1-12.74-2.01-15.61-.31-.06-.74-.01-.68-.13.8-1.86-1.22-4.56-.74-6.35.37-1.38,1.01-2.73.69-4.51.66.17,2.02.51,2.2.08.12-.41,0-1.25.26-1.51.44-.43,1.36-.21,2.4-.53.69-.21-1.73-3.04.36-3.24.6-.06,1.04,1.01,1.52,1.77l1.24-1.52.69.82c.12.14.64-.35.86-.35.67.15,1.53,1.06,1.91,1.65l1.05-.89c3.01,4.93,4.21,1.78,4.6,3.36.15.63,1.3,1.4-.21,1.76.38.16.8.31.91.51.15.26-.09,1.25-.86.6l1.19,5.52.03-.93.03-.92c0-.19.71-.18.75,0l.2.81c.17.68.4,1.71.13,2.22-.05.09-.71.07-.82.04s.09.19.18.26.71.1.68.2l-.39,1.18c-.09.26.99.73.67.85-1.15.46.27.69,0,1.04l-.78.98c.63.57,1.51,1.49.93,2.25-.3.13-.9.17-.91.42-.02.38.17,1.23.33,1.14l.26-.44c.04-.08.24-.25.27-.17s.24.42.24.53l.05,3.5c2.87-.96,4.97-.81,7.78.17.24.02-.17-.43-.03-.56.28-.25.97-.37,1.09-.19.15.23.21.59.22,1.14l3.14.37-1.38.58c.34.03,1.53.38,1.58.71.05.36,0,.93-.05,1.28.28-.03.98.08,1.28.38.32.32,1.18.63,0,1.07l2.03,1.03-1.6.77c-.29.14.39.69.62,1.05l-1.04.73c-.2.14.08.48.11.74-.57,1.38-2.46,1.24-3.65,2.27.14.14.8.2,1.03.15.29-.06-.08,1.1-.36,1.19ZM125.51,121.08c.07-.95-.2-1.69-.78-2.44-.39.9-.18,1.77.78,2.44ZM125.43,121.21l.02.83c0,.13.44.26.45.13l.04-.69c0-.13-.51-.4-.51-.27Z"/>
            <path class="cls-1" d="M113.09,162.96l-.02-1.82c.71.13,1.06.4,1.12.84.07.54-.28.87-1.1.98Z"/>
            <path class="cls-1" d="M113.59,159.79c.12-.13,0,.26-.06.41l.24.68c-.07.15-.55-.12-.54-.27s.22-.66.36-.81Z"/>
          </g>
          <g>
            <path class="cls-1" d="M104.09,163.34c.01.33.9.78.85,1.07-.26,1.6-2.15,1.06-1.33,2.71,1.14-.61,1.59-1.63,3.19-1.5l-1.09,1.15-.39-.38c.84.83-2.62,2.86-3.36,3.21-.09.42-.61,1.83-1.26.96.04.71.02.3.04.75.01.26-.92-.19-1.14.01-1.5,1.37-11.54,5.87-14.7,6.15l-12.25,1.09c-.28.02-.48.73-.53.63-.08-.12-.58-.48-.74-.42-3.86,1.42-9.97.54-14.53,0l.92.91c-1.46.27-2.71-.16-4.05-.32-1.8-.21-8.86-.78-7.55-3.94l-4.18-2.67c-.18-.39.86-.87,1.47-.63l-.29-1.29,1.96.28c-.49-1.24-.8-1.84-1.58-2.33.22-.38.08-.44-.18-.58-.18-.1-.16-.7.01-.65l.94.25c.56.15,1.16.22,1.6.25,1.08.06.75-.62.97-1.43.96.44,2.04-.39,2.72-.34l3.5.25c1.09.08,2.39.82,2.82-.5-.42,0-.9.01-1.16,0s-.49-.77-.39-.88c1.38.22,2.3.14,4.09.06l-1.38-3.21c-.38-.14-.86-.18-1.01-.41s-.2-.98-.17-1.27c.14-1.2-1.34-2.14-1.54-3.12-.35-1.78-.59-3.31-.67-5.16l1.09,1.98c-.51-3.98-1.27-6.3-1.23-10.07-.42-.2-1.21-.64-1.06-.91.19-.34.51-.75.7-.98l-.54-.77c-.12-.17.33-.33.7-.58-.94-.87-6.83,2.34-9.83,2.26l.33-1.28c-1.38.26-2.22.38-3.38.81-.42-.57.63-1.63,1.49-1.79-.22-.87-.9-.9-2.06-.89.49-.89.54-1.16-.04-1.49-.79-.45-1.32-.47-1.84.19-.37.47-2.25.41-1.89-.31.45-.9,1.64-2.54.72-3.32-.21-.17-.71-.45-.87-.55s.59-.49.68-.68l1.44-3.16-.73.37c-.1.05-.32.03-.42,0-.14-.06.47-.44.71-.55-.14-1.38,1.05-2.45,2.85-3.35l-1.17-.16,1.18-1.2c.22-.22.83.25.97.03.5-1.17,2.19-1.42,3.45-1.94-.06.22-.41.49-.85.83,1.59-.02,2.97-.63,4.6-1.24,12.04-4.51,18.8-2.89,24.9-4.71,3.98-1.18,12.34,1.37,15.8-.99.76.96.91.71,1.18.45.73-.68,2.26.45,3.13.44,1.6-.01,5.04-.09,6.11,1.98-.83-.08-1.97-.36-2.93-1.06.11-.14-.65.42-.87.59,1.66,0,4.21,2.4,4.27,2.11l-.18.86c1.33.77,2.86,1.48,3.86,2.68l-2.89-.41,2.75,2.12-2.12-.39,2.95,2.67-1.77.73.66.48c.13.09-.17.51-.3.43l-.65-.4c-.37.48-.95,1.2-1.6,1.01,1.57,4.73-9.82.79-8.12,2.02-.34-.25-5.56-.98-7.38-.4l2.83.3c3.65.39,4.82,1.12,5.61.32.07-.07.22.13.22.23v.5s1.31.36,1.31.36c-1.33-.06-2.44-.02-4-.28-5.87-.97-17.78-.16-23.17,1.68-.32.11-.17.71-.07.65.13-.08-.66.43-.64.57l.87,4.69-.57.32c-.11.06-.06.3.05.36l.67.32c-1.23,1.01-.6,1.96-.39,3.45l.15,1.07c.04.25.67.07,1,.14-1.93,9.98,3.33,6.92,1.02,11.67l1.39,4.37,6.17-1.15,1-3.38c.07-.19.7-.46.58-.6l-.65-.78c.97.14,1.19.21,1.5-.62.23-.64.09-.8-.68-1.45l1.06-.13c-.31.04,1.92-3.76-.02-1.91-.6-.58.36-1.49.86-2.1l-.8-.66c-.2-.17.42-.71.69-.84-.57-.67-.53-1.5-.28-2.38,1.4-5.02-1.36-3.19,1.85-5.95l.33-.96c.07-.19.55-.16.91-.11-.03-.93.35-2.17,1.1-2.87.6.94,1.3,1.94,2.01,1.76l.22-.98c.03-.12.59-.05.52.06-.09.13-.09.55.06.48.49-.26,1.3-.69,1.72-.45s1.85,1.07,1.74,1.55c-.74,3.24,5.25-.15,2.98,11.32l-.96,3.88c-.16.82-1.38.53-.29,1.37-.45.25-.63.55-.72.9-.13.54-.08,1.22.09,1.5.43-.57.44-.67.73-.56s.86.26.76.45l-.48.96c8.58-2.35,5.85-1.72,9.99-1.44.26.02.58.57.79.57.98,0,1.56-.58,1.93-.32.17.12-.09,1.63-.11,1.83-.06.79-2.41,1.08-2.37,2.14ZM88.77,118.54l.38.8c.05.11.3-.08.35-.19.08-.15.14-.64-.03-.64-.13,0-.72.03-.7.03ZM83.41,119.59c-1.69-.28-3.39-.53-5,.26l5-.26ZM94.09,121.23c-.18.16-.5.6-.34.56l.76-.15c.16-.03-.29-.53-.42-.41ZM85.24,126.59c-.44-.77-1.15-.22-2.47.21l2.47-.21ZM92.03,128.63c-.59-.32-1.3-.49-1.92,0,.59.28,1.35.4,1.92,0ZM39.84,130.8c1.36.12,2.27-.62,2.61-1.78-1.06.65-1.79,1.16-2.61,1.78ZM48.63,133.06c.92-.2,1.65-.51,2.44-1.1-.93.14-1.73.38-2.44,1.1ZM55.32,157.4c.61-.84-.1-2.26-.67-2.94l.67,2.94ZM92.02,160.91c.58.3,1.04.2,1.33-.49l-1.33.49ZM75.96,165.09c.17-.03.58-.21.71-.27.12-.05-.16-.22-.28-.2l-.51.08-.92.13c-.11.02-.04.12.04.26.06.09.26.15.37.13l.6-.11ZM94.69,166.83c-.93.28-1.69.82-2.7,1.47,1.02-.25,2.11-.45,2.7-1.47ZM58.59,166.77c-.94-.44-1.95-1.03-2.54-.07.75.36,1.75.23,2.54.07ZM89.41,168.16l-.39.49c-.07.09.39.11.49.05l.39-.22c.09-.05-.42-.41-.49-.33Z"/>
            <path class="cls-1" d="M75.65,136.04l-2.42.19c-.13.01-.16-.64-.03-.61l.88.16c.18.03.41-.51.59-.51.22,0,.57.33.97.77Z"/>
            <path class="cls-1" d="M94.9,153.6c.32-.11.82.14.76.34l-.26.84c-.06.2-.73.05-.72-.16.01-.27.04-.95.22-1.02Z"/>
            <path class="cls-1" d="M47.77,123.09l-2.29.56c0-.51.42-.7,1.04-.83.45-.1,1.23-.82,1.26.26Z"/>
            <path class="cls-1" d="M53.95,165.04c-.22.72-.6.92-1.02.7-.37-.19-.71-.49-.98-.85l2,.15Z"/>
            <path class="cls-1" d="M79.58,135.14c-.29.58-1.19.68-1.44-.22l1.44.22Z"/>
            <path class="cls-1" d="M69.68,146.73l.33.85c.16.42-1.24-.04-1.23-.06l.9-.8Z"/>
            <path class="cls-1" d="M79.71,135.06l1.6-.2c-.12.97-1.16.72-1.6.2Z"/>
            <path class="cls-1" d="M95.25,151.79c-.08-.1.71-.3.74-.17l.22.76c.03.12-.37.14-.46.04l-.5-.63Z"/>
            <path class="cls-1" d="M71.18,158.07c-.08-.13.77-.14.82.02l.17.61c.04.16-.48.2-.57.06l-.42-.68Z"/>
            <path class="cls-1" d="M71.58,135.93c.11-.07.53-.03.65.02.17.07.41.53.23.54l-.78.05c-.18.01-.26-.5-.1-.61Z"/>
            <path class="cls-1" d="M53.42,150.62c-.03-.11.7.01.67.12l-.14.6c-.03.11-.29.27-.31.17l-.22-.89Z"/>
            <path class="cls-1" d="M94.64,158.88c.42,0,.55-.03.57.08.02.22.13.62-.04.61h-.56c-.17-.01-.05-.6.03-.69Z"/>
          </g>
          <path class="cls-1" d="M197.86,81.99c-1.31,1.9-3.43,4.38-6.1,4.64l-2.57-.16c-3.2-2.6-2.72,1.23-6.48-2.01-.81-.7-.47-1.65-.7-2.67-.67-2.89.82-5.55,1.74-8.23.48-1.4.45-3.16,2.41-3.78.64-.2,1.65-1.27,2.38-.66l1.01-.12c.3-.03.51.83.62,1.05l3.14.24c1.86.14,2.46.79,3.64,1.81,1.58,1.38,2.69,2.81,2.24,4.93l-.7,3.3c-.05.22-.78.55-.73.74.06.27.27.66.08.93ZM191.26,82.42c1.82-2.15,3.2-4.07,3.08-6.82-1.36-.67-2.79-1.27-4.29-1.66-1.5,4.65-2.52,2.99-2.66,8.38,1.61-.22,2.76-.1,3.87.1Z"/>
          <path class="cls-1" d="M198.32,102.64c-6.19-.79-6.44-7.25-8.64-4.88-2.08,2.23-8.07,1.7-6.77.21-.04-.18-.58-.57-.43-.68l.94-.71c-.46-.72-.22-1.39.53-1.88l9.04-5.87c.43,1.15,1.77.71,2.37.98.99.58.32,2.64-.37,3.35-.47.97,1.49,1.62,1.76,2.27.44,1.09,1.71,1.71,2.55,2.76.7.88-.65,2.3,1.01,3.18l-1.06.15c-.54.08.64.33.12,1.51-.22.5-.72-.16-1.06-.37Z"/>
          <path class="cls-1" d="M204.46,86.15l-3.69,5.07c-.91-.88-.74-.63-.9-.54-.58.31-.86.24-.84.12l.15-.99-.73.87c-.35-1.02-.88-1.98-.36-2.94,1.15-2.11,3.76-10.58,4.31-13.19l2.65-1.78c.74.42,1.47.65,1.87.78,1.28.42,1.36,2.43.75,3.75-.69,1.5.19,3.38-1.37,4.73,1.25.22,2.21.35,3.02.7s.24,1.52.73,2.06c-.12-.13.42.69.1.71l-.68.34-.14.9c.05-.31-3.27,1.73-4.86-.57Z"/>
          <g>
            <path class="cls-1" d="M41.24,74.86l.98-2.5-.63.03-.21-.29.31-.26.52.43c.85-.96-.78-1.04-.5-2.23l-2.2-.97-1.64-.49c-.52.19-.82.47-1.18,1.04.05-1.02-3.12-.98-2.01.36l-6.05,1.77-5.54-2.62.62-.7.11-.68-1.13-.27-.86-.11.45-.76.88-1.22-.78-1.03c3.86-2.73,8.18-4.34,12.82-4.44,1.65.41,3.16.17,4.62-.5l.93.97c.57-.1.85-.22,1.22-.57,1.29.21,2.5,1.3,3.9,1.05,2.3.18,3.22,2.76,4.12,4.85l.66-.79.78.75c.04,9.19-2.61,17.96-8.61,25.44l-1.63-.28-1.33,1.39c-.39.44-1.16,1-1.6.86-.42-.63-.7-.94-.67-1.65l-2.03,1.64c.19-.88.4-1.22.94-2.13l-.6-.8-1.41.73c.27-2.04,1.87-3.23,2.39-5.38-.15-.75-.41-1.52-.08-1.97.1-1.16,1.81-.7,1.43-1.84,1.48-2.04,3.06-3.96,3.03-6.84ZM43.21,62.41c-.57-.79-1.48-.94-2.3-.3l2.3.3ZM33.92,64.78c.5.11,1.07.11,1.58,0-.46-.09-.99-.09-1.58,0ZM39.97,68.1c-1.5-.5-2.77-.4-4.2,0,1.49.35,2.79.36,4.2,0ZM42.31,79.35l-.49.88.22.36.34-.61-.06-.63Z"/>
            <path class="cls-1" d="M48.16,115.45l.7.26.07.62c-1.96-.24-3.98-1.14-5.05-2.89-.11-1.96-.5-3.8-.92-5.79l-.35-.84-.96.64c-.62-2.94-.73-6.15-.29-9.44l1.18-.09.33-1.51c.26-.73.56-1.42,1.03-1.98.68-.12,1.18-.2,1.8-.06l.7-.44.93.81c2.18-1.63,4.85-2.32,7.81-1.77l.72-.15.3-.27-.38-.66c1.04.85,1.79,1.17,2.86.59l-1.19-.53c1.71-.26,3.2.29,4.59.82.74-.33,1.34-.17,2.08.18.47.47.81,1.14,1.06,1.96,1.25,1.29,2.38,2.9,1.91,4.67l-1.98,10.18c-1.31,3.21-4,4.83-7.25,3.96-2.03.2-4.31.39-6.06.96-.81,1.47-2.42,0-3.62.77ZM58.52,94.5c-.84-.23-1.35-.24-1.81-.02l1.81.02ZM55.44,107.92l2.8-.41c1.59-2.68,1.8-5.38,1.72-8.48-2.1-.59-4.31-.33-6.28.86l-4.09.84c-1.03,2.35-.36,4.91,1.15,7.32,1.38-.46,3.02-.5,4.7-.14Z"/>
            <path class="cls-1" d="M75.21,108.84l-2.41.62,1-2.45-.88.58c-.13.08-.15.1.06-.36l-.32-.53c.99-1.94,2.2-3.96,4.14-5.23,1.23-1.92,2.26-3.96,3.01-5.99l-.29-1.21h1.2c-.4-1.13-.68-1.86.05-2.89l-.53-1.1c-.66.13-1.08.29-1.38.67-2.28,1.56-5,.97-6.98-.67l.6-1.15-1.51-.56,1.8-1.64-.68-.73,4.68-1.84c3.35-1.61,7.22-1.34,10.97-1.12,1.59-.87,2.62-.18,4.41.35l3.33,3.03c-1.03,1.42-2.36,2.72-3.68,3.55-1.23-.57-2.32-.64-3.45-.5-.31,2.17-.71,3.97-1.32,6.15l1.22,1.98c3.28,1.23,5.49,3.92,7.23,6.96.23.35.4.77.52,1.21l-1.2.09.5.88c-.18.32-.48.52-1.01.85-.69-.12-.73-.01-.05.48-1.24,1.1-3.04.75-3.99-.78l-5.11-3.88c-.8.44-1.12-.5-1.86-.39l-1.23,1.35c-.77,1.75-1.66,3.23-3.41,4.22-.73-.86-1.25-.09-1.99.46l-.68.65-.75-1.03ZM86.01,92.29c.7-.6.52-1.29.29-1.95l-.29,1.95Z"/>
            <path class="cls-1" d="M62.59,89.67c-.33-.96-.93-1.66-1.92-2.04-.57-.91-.32-2.15-1.38-2.8l.46-9.65c.19-3.9.04-7.7-1.29-11.34-.36-1.9-.76-3.62-.03-5.18,1.2,1.16.34-1.14,1.56-.4-.16-.76-.14-1.56.14-2.12.93.54,1.29.82,1.91.91.75.08.66.24,1.25-.86.75.8,1.36,1.65,1.93,2.63l.37.51.81-.47c-.35,2.25-.23,4.11,1.27,5.68l.52,6.5c-.01,1.8.34,3.57-.47,5.3.35,3.06.27,6.29-1.03,9.51l-2.93,2.32-.38,1.02c-.37-.22-.24-.75-.78.48Z"/>
            <path class="cls-1" d="M106.88,99.21c.52,1.37.46,2.56.13,3.74.21,2.41,0,5.34-1.5,6.68-.56.92-1.3,1.49-2.47,2.55-2.47-1.16-3.79-3.95-3.25-7.1.37-6.39.67-12.56-.12-18.84-.92-2.95-1.3-5.78-.83-8.53,1.57.54,1.58-1.31,1.34-2.75.64.54,1.31.18,1.94,1.03l.78-.69c.56.01.91.36,1.29.81,1.22,2.34,1.99,4.73,2.1,7.45,1.31.58.76,1.69.95,2.68l.34,10.47-1.02.65.31,1.86Z"/>
            <path class="cls-1" d="M91.37,78.62c-.06,1.59-2.27,1.9-3.64,1.65-1.11-.3-1.94-.16-2.73.73l-6.61-1.24c-2.11-.17-3.38-1.35-3.49-3.7-.36-1.66,1.69-2.82,3.5-2.92l10.08,1.47c.75-.27,1.23-.2,1.91.25.3.42.56.96.75,1.49l1,1.03-.77,1.24Z"/>
            <path class="cls-1" d="M34.85,69.72c.81-.43.72-.36.62-.24l.58.04-.43.45c-.51-.17-1.08-.36-.77-.26Z"/>
          </g>
          <g>
            <path class="cls-1" d="M94.97,25.37l-1.92,1.6.91.37-4.19,3.09c-1.84-.01-3.28.88-5.04.86-4.63,1.44-9.78,1.7-14.6-.38-.95-.92-1.33-2.22-2.57-2.96-1.19-2.28-.98-5.18-.16-7.62-1.41-.71-2.14-1.75-3.33-2.61.39-1.45.98-2.66,2.01-3.81,4.79-1.56,9.54-2.74,14.09-2.86,2.06.03,4.98.29,7.39-1.02,2.41-.28,4.06,1.12,5.54,2.69l1.18,1.17c.13.45-.31.83-1.02,1.21.03,1.11-.94,1.78-2.18,1.94-1.04,1.09-2.41,1.23-3.85.39l-9.02.72c-.78.69-1.34.92-2.66.98l-1.24,3.59c.57,2.27,2.97,3.23,5.46,2.87l11.15-2.35,1.34.28c.43.33,1.17.24.01.93l2.71.92ZM84.58,13.61c.3-.08,1.04-.3.59-.22l-.25-.57-.61.27-.79.16.32.58.74-.21ZM83.17,30.61c-.02.44-.03.55-.02.46l.77-.22.29-.23-1.04-.02Z"/>
            <path class="cls-1" d="M82.09,67.23c-2.57.47-4.82-.21-6.78-2.57-1.44-.75-1.75-3.05-1.49-5.38-.45-.4-1.23-.81-1.91-1.03l.68-.6-.21-.34h-1.5s3.12-3.09,3.12-3.09c1.26-.62,2.96-.87,4.54-.87,2.77-.71,5.53-.8,8.48-.87.95-.08,1.93-.2,2.47-.79.22-.82.78-1.75-.28-2.32-4.46-.73-8.77.37-13.08,1.45-1.25.46-3.18.29-3.45-1.06l-1.28-.65.71-1.08.06-1.14c.51-.34,1.07-.57,1.63-.73,2.5-.89,4.87-1.73,7.49-2.14,1.71,1.01,2.88-.29,4.6-.36l-1.09.43,5.5.16c1.39-.54,2.29-.2,3.71.29.72.37,1.32,1.79,1.89,2.76l1.32,1.16c.08.71,0,1.21-.51,1.8.25.97-.4,1.55-1.56,1.74-.37,1.72-1.13,3.43-2.49,4.73-3.71-.14-7.19.12-10.77.96-.74.82-.75,1.93-.08,2.78,2.83.98,5.69.81,8.45-.3,1.53-.21,2.98-.59,4.29-1.33,2.02-.74,3.89.26,5.24,1.96-1.19,2.77-4.33,4.47-7.94,4.63-3.13,1.25-6.32,1.88-9.74,1.83ZM91.69,50.03c-.53.62-.56,1.44-.12,1.77,1.09-.12,1.52-.96,1.31-1.94l-1.04,1.69-.16-1.52Z"/>
            <path class="cls-1" d="M79.91,41.44c-1.88.43-3.68.57-5.55.68-.93-.51-2.23-.45-3.21.05-.89-.52-1.91-.37-2.65.38-.74-.52-2.29.55-2.36-.75-2.13-.23-3.93-1.38-3.94-3.55l1.12-.21.03-.9,4.73-1.53c5.19-.28,10.42-.53,15.63-1.37l7.3-.64c1.83-1.08,3.82-1.25,5.36.18.82-.31,2.69-.7,2.04.45-.01.34,1.1.93,1.93,1.31l-2.73,1.22,1.37.25-5.06,2.45-9.48,1.09c-.72.7-1.55.8-2.44.75-.79.22-1.56.27-2.08.13Z"/>
          </g>
          <g>
            <path class="cls-1" d="M114.86,88.53l-2.18-.79c-.8-.14-.42-.62-.05-1.12.56-.37,1.11-.45,2.03-.58l-1.11-.59c.39-.8.53-.95,1.05-1.31l7.8-.79c1.13.49,2.18-.18,3.65-.49.35-.98.45-2.82,0-3.36-1.24.05-2.13-1.11-3.31-1.35-.95.27-1.8.54-2.69.29l-1.95-2.26c.67-1.08.7-2.2-.52-3.06-.79-4.34-.84-8.8-.46-12.98,1.23-.91.78-2.04,2.76-2.47-.12-1.07,1.01.94,1.68-.34l.16,1.39.43.59.8-.89.99,4.61,8.99-.21c.77-2.01.55-3.86,1.55-5.95l1.28,2.84c-.1-1.54-.81-2.74.27-3.55,1.45.23,1.17,1.77,1.74,2.89l.25.71c.26-.83-.63-1.98.97-2.36,1.6,5.87,1.82,11.69.08,17.18-1.13,1.42-2.84,1.02-3.47,2.61-.7-1.54-1.98-.2-1.93.5-1.44.58-.73,1.8-.69,2.81-.43.9-.28,2.05.77,2.34,1.55-.71,3.33-1.87,4.98-.78,1.54-1.1,3.63-.62,5.61.22-.88.8-.64.75-.19,1.01l1.5.56c-.93.75-2.18,1.37-3.33,1.89l1.29.21.07.54-.75.7c-4.27,1.13-8.58,2.28-12.93,2.54l-8.02.79c-2.61.59-6.04.05-8.78-1.15.48-.77,1.01-.8,1.65-.85ZM138.28,63.92c.71-1.19.37-2.42-.27-3.43l.27,3.43ZM132.9,71.51l.47-3.29-9.27.55c.41,1.6-1.27,2.04.22,2.55.03,1.1.28,1.77,1.39,1.6l7.19-1.42ZM141.14,83.57l-1.21.35s.17.13.5.38l.95-.32c.08.14-.09-.15-.24-.42ZM136.97,84.49c-.77.34.11.29.3.34.64-.02.94-.11.87-.45l-1.17.11ZM136.97,86.41l.86.18-.18-.67-.84.09-.79.25.39.42.56-.28Z"/>
            <path class="cls-1" d="M155.06,29.15c-4.12,1.05-8.28,1.91-12.38,2.28-3.45-.44-6.65-1-8.35-3.91.25-1.09.42-2.04.45-3.21-.28-.61-1.12-1.21-2.03-1.78.38-1.39,2.22-.62,2.37-2.38l11.82-1.32,1.95-.82c.13-.86.21-1.54.23-2.03-4.33-.66-7.71-.45-11.49,1.23l-5.11-2.34c1.12-.54,1.95-1.05,1.92-2.23,5.04-1.88,10.32-1.61,15.6-1.27,2.61-.35,4.83,1.02,5.83,3.42l-1.55,5.81c.18,1-2.33.42-1.77,1.75-3.27,1.13-6.92-.02-10.96.89-.38.64-.76,1.43-1.17,2.49,4.37,1.17,8.53.47,12.6-1.07.7-.13,1.23-.28,2.17.01.72.15.74.34.22,1.16l1.63.07.33.55-1.16.7.23.89-1.38,1.12Z"/>
            <path class="cls-1" d="M126.94,108.87c-.92-1.37-.87.23-1.32.44-.8-.58-1-1.22-1.13-1.87l-1.43.43-.25-2.19c.68-2.34,1.47-4.8-.17-6.98-1.54.62-3.03,1.32-4.8,1.32-.57-1.07.81-1.64-.74-1.69-.49-.63-.99-.88-1.85-1.04.71-2.7,2.61-4.15,5.37-4.26,2.6-.76,5.65-.75,7.71,1.07l.55.77.86-.19-.12-1.17c3.32-2.15,7.52-2.26,11.25-.87.75.66,1.21,1.41,1.71,2.39-.27,4.48-.44,9.1-2.46,12.66-1.33-1.67-.59,2.82-1.29-.24-.65,1-.54.78-.83,1.11-1.72-.21-.74-1.47-.93-2.22l-.65.5-.71-.89c.81-2.64.76-5.23.12-7.84-1.82.61-3.11,1.22-4.64.96-.12-.74-.24-1.3-.44-1.47-.85.09-1.38.26-1.32.91-.07,3.79-.43,7.65-2.47,10.39Z"/>
            <path class="cls-1" d="M161.52,72.62c-3.66-.03-8.19-1.21-10.14-4.25-1.19-2.36-1.96-3.75.01-5.69-.37-1.24-.28-2.38.46-3.39,2.37-.25,3.67-1.96,4.69-3.55,2.03.55,1.89-2.27,3.32-1.91,1.47-.3,3.4-.26,3.92.69l.61,1.21-.97,1.15c2.55.07,4.79.92,6.44,2.47.67,2.09,1.29,3.55,1.61,5.67-1.82,3.79-5.89,7.68-9.96,7.58ZM165.01,61.05c-.38-1.18-1.6-1.8-2.84-1.76l2.84,1.76ZM162.08,66.12c1.61.16,2.53-1.23,3.13-2.31.18-1.35-.63-2.29-1.93-3.02-.85-.57-1.79-.9-2.78-.86l-2.37,1.58-1.03-.85-.44.74,1.02.57c-1.05,1.57-1.28,3.28.32,4.39.99,1.61,2.56,1.11,4.09-.24ZM157.35,67.57c-.38-.85-.92-1.4-1.75-1.62.54.67,1.1,1.21,1.75,1.62Z"/>
            <path class="cls-1" d="M142.47,53.79l-1.03,1.35c-.71-.25-1.16-.43-1.66-.71-1.85-.36-3.09-1.56-3.12-3.57-1.01-2.9-1.27-6.05-.25-8.84l1.45-1.37,2.32.63c3.82-.8,7.63-1.93,11.52-1.1,2.16-1.06,4.94.44,5.32,2.35.36,2.91-1.96,5.12-1.01,7.72-.01,2.29-3.33,3.9-5.85,3.28l-7.68.25ZM150.25,48.82c.57-1.71,1.52-3.37.8-5-3.3.1-6.39.91-9.68,1.7l.74,4.23,8.15-.93Z"/>
            <path class="cls-1" d="M163.65,97.51c-1.68.21-3.36.28-5.01.08-.55.56-1.25,1.33-1.6,1.42l-2.87-1.17c-1.97-3.15-2.25-7.71-1.72-11.54.44-.85.87-1.8,1.26-2.04,1.13-.18,1.73-.45,2.73.17,3.41-.89,6.79-1.58,10.38-.92,2.09-.36,4.65.39,5.18,2.42.49,3.05-2.01,5.85-.64,8.71-1.35,2.5-4.21,3.84-7.72,2.89ZM165.89,92.85l.82-5.21c-3.22-.4-6.37.42-9.43,1.39.34,1.62.5,2.9.63,4.52l7.98-.71Z"/>
            <path class="cls-1" d="M122.35,49.94c-1.09-1.68-.21-3.64-.91-5.32-.53-.31-.51-2.13-.03-2.45,1.35-.88-1.23-2.45.5-3.57.52-5.11-.39-10.33-.78-15.6l.37-1.33.7.13.37.99.57-2.25c.38,0,.38.01,1.21.13l.71,1.48.57,1.71-.04-2.26,1.32,1.03c1.64,6.3,1.45,12.72,1.24,18.83.63,1.88.1,3.8-.79,5.51.15,2.18-1.43,3.86-3.51,4.29-.99-.45-.51-2.95-1.52-1.32ZM124.89,33.37l-.36,1.19c-.1-.08.15.12.41.33l.3-.96-.35-.57Z"/>
            <path class="cls-1" d="M152.33,81.51c-2.71-.12-4.21-.3-5.82-2.92.29-.62,1.06-1.74,1.75-2.76l11.46-.75c2.04-.6,4.34-.9,6.47-.49,3.05-.43,6.48-1.42,9.03.25-.2.67.28.86.65.88.37.27.47.35.49.43l-1.11.83-.74.15-.31.4.82.62c-2.62,1.77-5.54,1.45-8.31,2.14l-14.38,1.22ZM168.97,75.99l-.78.76,2.26-.3-1.48-.46Z"/>
            <path class="cls-1" d="M133.45,39.11l-2.11-.77c-.06-.06-.18-.69-.26-1.07-.67-.3-.92-.49-1.29-.89.18-.35.54-.47,1.43-.76.04-.37-.04-.97-.1-1.23l1.93-.53,21.51-1.58c1.78-.52,3.71-.4,5.01.45-.77,1.23,1.18.63,1.5,1.3l-2.21,1.08c-.2.41,1.06.47-.07,1.33-8.28,1.96-16.88,2.64-25.35,2.68Z"/>
          </g>
          <path class="cls-1" d="M106.2,47.94c-.79-.99.72-1.77-.62-2.69l4.18-9.29c.55-1.77,1.48-3.72.45-5.68-2.94-.49-5.99-.02-8.89.78l-.99-.49.04-1.22c-.89,0-1.61-.21-2.27-1.15-1.01-.42,1.03-.91.12-2.29-.04-.06.9-.69.99-.74.36-.22.73-.41,1.12-.58.8-.34,1.65-.56,2.51-.72,2.18-.41,4.42-.45,6.63-.6h.03c.01.08.09.15.18.17s.17.01.26,0c1.95-.17,3.87.57,5.5,1.6.34.22.66.46.97.71.24.2.58.34.68.66.05.15.03.32.02.47-.06.74,0,1.49.12,2.22.05.35.17.72.17,1.06s-.09.66-.15.99c-.1.5-.2,1-.32,1.5-.22,1-.47,2-.74,2.98-.55,1.97-1.2,3.92-1.98,5.81s-1.71,3.74-2.77,5.5c-.07.12-.15.25-.23.37l-3.47,1.67-.31-1.47c-.03-.28-.12-.9-.26-.35l-.95.76ZM110.2,24.56c-1.16-.26-2.4-.54-3.68.18,1.25.03,2.23-.05,3.68-.18ZM109.08,28.34c-.83-.41-1.57-.33-2.43.1.79.27,1.65.26,2.43-.1Z"/>
        </g>
      </g>
    </g>
  </g>
</svg>